<svg width="409" height="309" viewBox="0 0 409 309" fill="none" xmlns="http://www.w3.org/2000/svg">
<path d="M1.43466 20V5.45455H10.7528V7.66335H4.0696V11.6122H10.1136V13.821H4.0696V20H1.43466ZM19.3093 15.4119V9.09091H21.8803V20H19.3874V18.0611H19.2738C19.0276 18.6719 18.6228 19.1714 18.0593 19.5597C17.5006 19.9479 16.8117 20.142 15.9925 20.142C15.2776 20.142 14.6455 19.9834 14.0962 19.6662C13.5517 19.3442 13.1256 18.8778 12.8178 18.267C12.5101 17.6515 12.3562 16.9081 12.3562 16.0369V9.09091H14.9272V15.6392C14.9272 16.3305 15.1166 16.8797 15.4954 17.2869C15.8742 17.6941 16.3713 17.8977 16.9869 17.8977C17.3656 17.8977 17.7326 17.8054 18.0877 17.6207C18.4428 17.4361 18.734 17.1615 18.9613 16.7969C19.1933 16.4276 19.3093 15.9659 19.3093 15.4119ZM27.0952 13.608V20H24.5241V9.09091H26.9815V10.9446H27.1094C27.3603 10.3338 27.7604 9.84848 28.3097 9.48864C28.8636 9.12879 29.5478 8.94886 30.3622 8.94886C31.1151 8.94886 31.7708 9.10985 32.3295 9.43182C32.893 9.75379 33.3286 10.2202 33.6364 10.831C33.9489 11.4418 34.1027 12.1828 34.098 13.054V20H31.527V13.4517C31.527 12.7225 31.3376 12.152 30.9588 11.7401C30.5848 11.3281 30.0663 11.1222 29.4034 11.1222C28.9536 11.1222 28.5535 11.2216 28.2031 11.4205C27.8575 11.6146 27.5852 11.8963 27.3864 12.2656C27.1922 12.6349 27.0952 13.0824 27.0952 13.608ZM40.7599 20.1918C39.9029 20.1918 39.1359 19.9716 38.4588 19.5312C37.7817 19.0909 37.2467 18.4517 36.8537 17.6136C36.4607 16.7756 36.2642 15.7576 36.2642 14.5597C36.2642 13.3475 36.4631 12.3248 36.8608 11.4915C37.2633 10.6534 37.8054 10.0213 38.4872 9.59517C39.169 9.1643 39.929 8.94886 40.767 8.94886C41.4063 8.94886 41.9318 9.05777 42.3438 9.27557C42.7557 9.48864 43.0824 9.74669 43.3239 10.0497C43.5653 10.348 43.7524 10.6297 43.8849 10.8949H43.9915V5.45455H46.5696V20H44.0412V18.2812H43.8849C43.7524 18.5464 43.5606 18.8281 43.3097 19.1264C43.0587 19.42 42.7273 19.6709 42.3153 19.8793C41.9034 20.0876 41.3849 20.1918 40.7599 20.1918ZM41.4773 18.0824C42.0218 18.0824 42.4858 17.9356 42.8693 17.642C43.2528 17.3437 43.544 16.9295 43.7429 16.3991C43.9418 15.8688 44.0412 15.2509 44.0412 14.5455C44.0412 13.84 43.9418 13.2268 43.7429 12.706C43.5488 12.1851 43.2599 11.7803 42.8764 11.4915C42.4976 11.2027 42.0313 11.0582 41.4773 11.0582C40.9044 11.0582 40.4261 11.2074 40.0426 11.5057C39.6591 11.804 39.3703 12.2159 39.1761 12.7415C38.982 13.267 38.8849 13.8684 38.8849 14.5455C38.8849 15.2273 38.982 15.8357 39.1761 16.3707C39.375 16.901 39.6662 17.3201 40.0497 17.6278C40.438 17.9309 40.9138 18.0824 41.4773 18.0824ZM52.4485 20.2202C51.7572 20.2202 51.1346 20.0971 50.5806 19.8509C50.0314 19.5999 49.5958 19.2306 49.2738 18.7429C48.9566 18.2552 48.7979 17.6539 48.7979 16.9389C48.7979 16.3234 48.9116 15.8144 49.1388 15.4119C49.3661 15.0095 49.6763 14.6875 50.0692 14.446C50.4622 14.2045 50.9049 14.0223 51.3974 13.8991C51.8945 13.7713 52.4083 13.679 52.9386 13.6222C53.5778 13.5559 54.0962 13.4967 54.494 13.4446C54.8917 13.3878 55.1805 13.3026 55.3604 13.1889C55.5451 13.0705 55.6374 12.8883 55.6374 12.642V12.5994C55.6374 12.0644 55.4788 11.6501 55.1616 11.3565C54.8443 11.063 54.3874 10.9162 53.7908 10.9162C53.1611 10.9162 52.6616 11.0535 52.2923 11.3281C51.9277 11.6027 51.6815 11.9271 51.5536 12.3011L49.1531 11.9602C49.3424 11.2973 49.6549 10.7434 50.0906 10.2983C50.5262 9.84848 51.0588 9.51231 51.6886 9.28977C52.3183 9.0625 53.0143 8.94886 53.7766 8.94886C54.3022 8.94886 54.8254 9.01042 55.3462 9.13352C55.8671 9.25663 56.3429 9.46023 56.7738 9.74432C57.2047 10.0237 57.5503 10.4048 57.8107 10.8878C58.0759 11.3707 58.2085 11.9744 58.2085 12.6989V20H55.7369V18.5014H55.6516C55.4954 18.8045 55.2752 19.0885 54.9911 19.3537C54.7118 19.6141 54.359 19.8248 53.9329 19.9858C53.5115 20.142 53.0167 20.2202 52.4485 20.2202ZM53.1161 18.331C53.6322 18.331 54.0797 18.2292 54.4585 18.0256C54.8372 17.8172 55.1284 17.5426 55.332 17.2017C55.5404 16.8608 55.6445 16.4891 55.6445 16.0866V14.8011C55.564 14.8674 55.4267 14.929 55.2326 14.9858C55.0432 15.0426 54.8301 15.0923 54.5934 15.1349C54.3567 15.1776 54.1223 15.2154 53.8903 15.2486C53.6583 15.2817 53.457 15.3101 53.2866 15.3338C52.9031 15.3859 52.5598 15.4711 52.2567 15.5895C51.9537 15.7079 51.7146 15.8736 51.5394 16.0866C51.3642 16.295 51.2766 16.5649 51.2766 16.8963C51.2766 17.3698 51.4495 17.7273 51.7951 17.9688C52.1407 18.2102 52.5811 18.331 53.1161 18.331ZM60.7937 20V9.09091H63.2511V10.9446H63.3789C63.6062 10.3196 63.9826 9.83191 64.5082 9.48153C65.0337 9.12642 65.6611 8.94886 66.3903 8.94886C67.1289 8.94886 67.7515 9.12879 68.2582 9.48864C68.7695 9.84375 69.1294 10.3291 69.3377 10.9446H69.4513C69.6928 10.3385 70.1 9.85559 70.6729 9.49574C71.2506 9.13116 71.9348 8.94886 72.7255 8.94886C73.7293 8.94886 74.5484 9.2661 75.1829 9.90057C75.8174 10.535 76.1346 11.4607 76.1346 12.6776V20H73.5565V13.0753C73.5565 12.3982 73.3765 11.9034 73.0167 11.5909C72.6568 11.2737 72.2165 11.1151 71.6957 11.1151C71.0754 11.1151 70.5901 11.3092 70.2397 11.6974C69.8941 12.081 69.7212 12.5805 69.7212 13.196V20H67.1999V12.9688C67.1999 12.4053 67.0295 11.9555 66.6886 11.6193C66.3524 11.2831 65.9121 11.1151 65.3675 11.1151C64.9982 11.1151 64.6621 11.2098 64.359 11.3991C64.056 11.5838 63.8145 11.8466 63.6346 12.1875C63.4547 12.5237 63.3647 12.9167 63.3647 13.3665V20H60.7937ZM83.5724 20.2131C82.4787 20.2131 81.5341 19.9858 80.7386 19.5312C79.9479 19.072 79.3395 18.4233 78.9134 17.5852C78.4872 16.7424 78.2741 15.7505 78.2741 14.6094C78.2741 13.4872 78.4872 12.5024 78.9134 11.6548C79.3442 10.8026 79.9455 10.1397 80.7173 9.66619C81.4891 9.18797 82.3958 8.94886 83.4375 8.94886C84.1098 8.94886 84.7443 9.05777 85.3409 9.27557C85.9422 9.48864 86.4725 9.82008 86.9318 10.2699C87.3958 10.7197 87.7604 11.2926 88.0256 11.9886C88.2907 12.6799 88.4233 13.5038 88.4233 14.4602V15.2486H79.4815V13.5156H85.9588C85.9541 13.0232 85.8475 12.5852 85.6392 12.2017C85.4309 11.8134 85.1397 11.508 84.7656 11.2855C84.3963 11.063 83.9654 10.9517 83.473 10.9517C82.9474 10.9517 82.4858 11.0795 82.0881 11.3352C81.6903 11.5862 81.3802 11.9176 81.1577 12.3295C80.9399 12.7367 80.8286 13.1842 80.8239 13.6719V15.1847C80.8239 15.8191 80.9399 16.3636 81.1719 16.8182C81.4039 17.268 81.7282 17.6136 82.1449 17.8551C82.5616 18.0919 83.0492 18.2102 83.608 18.2102C83.982 18.2102 84.3205 18.1581 84.6236 18.054C84.9266 17.9451 85.1894 17.7865 85.4119 17.5781C85.6345 17.3698 85.8026 17.1117 85.9162 16.804L88.3168 17.0739C88.1652 17.7083 87.8764 18.2623 87.4503 18.7358C87.0289 19.2045 86.4891 19.5691 85.831 19.8295C85.1728 20.0852 84.42 20.2131 83.5724 20.2131ZM93.1694 13.608V20H90.5984V9.09091H93.0558V10.9446H93.1836C93.4345 10.3338 93.8346 9.84848 94.3839 9.48864C94.9379 9.12879 95.622 8.94886 96.4364 8.94886C97.1893 8.94886 97.8451 9.10985 98.4038 9.43182C98.9672 9.75379 99.4028 10.2202 99.7106 10.831C100.023 11.4418 100.177 12.1828 100.172 13.054V20H97.6012V13.4517C97.6012 12.7225 97.4118 12.152 97.033 11.7401C96.659 11.3281 96.1405 11.1222 95.4776 11.1222C95.0278 11.1222 94.6277 11.2216 94.2773 11.4205C93.9317 11.6146 93.6594 11.8963 93.4606 12.2656C93.2665 12.6349 93.1694 13.0824 93.1694 13.608ZM108.233 9.09091V11.0795H101.962V9.09091H108.233ZM103.51 6.47727H106.081V16.7188C106.081 17.0644 106.133 17.3295 106.238 17.5142C106.346 17.6941 106.489 17.8172 106.664 17.8835C106.839 17.9498 107.033 17.983 107.246 17.983C107.407 17.983 107.554 17.9711 107.686 17.9474C107.824 17.9238 107.928 17.9025 107.999 17.8835L108.432 19.8935C108.295 19.9408 108.098 19.9929 107.843 20.0497C107.592 20.1065 107.284 20.1397 106.919 20.1491C106.275 20.1681 105.695 20.071 105.179 19.858C104.663 19.6402 104.254 19.304 103.951 18.8494C103.652 18.3949 103.506 17.8267 103.51 17.1449V6.47727ZM113.523 20.2202C112.831 20.2202 112.209 20.0971 111.655 19.8509C111.106 19.5999 110.67 19.2306 110.348 18.7429C110.031 18.2552 109.872 17.6539 109.872 16.9389C109.872 16.3234 109.986 15.8144 110.213 15.4119C110.44 15.0095 110.75 14.6875 111.143 14.446C111.536 14.2045 111.979 14.0223 112.472 13.8991C112.969 13.7713 113.482 13.679 114.013 13.6222C114.652 13.5559 115.17 13.4967 115.568 13.4446C115.966 13.3878 116.255 13.3026 116.435 13.1889C116.619 13.0705 116.712 12.8883 116.712 12.642V12.5994C116.712 12.0644 116.553 11.6501 116.236 11.3565C115.919 11.063 115.462 10.9162 114.865 10.9162C114.235 10.9162 113.736 11.0535 113.366 11.3281C113.002 11.6027 112.756 11.9271 112.628 12.3011L110.227 11.9602C110.417 11.2973 110.729 10.7434 111.165 10.2983C111.6 9.84848 112.133 9.51231 112.763 9.28977C113.393 9.0625 114.089 8.94886 114.851 8.94886C115.376 8.94886 115.9 9.01042 116.42 9.13352C116.941 9.25663 117.417 9.46023 117.848 9.74432C118.279 10.0237 118.625 10.4048 118.885 10.8878C119.15 11.3707 119.283 11.9744 119.283 12.6989V20H116.811V18.5014H116.726C116.57 18.8045 116.349 19.0885 116.065 19.3537C115.786 19.6141 115.433 19.8248 115.007 19.9858C114.586 20.142 114.091 20.2202 113.523 20.2202ZM114.19 18.331C114.706 18.331 115.154 18.2292 115.533 18.0256C115.911 17.8172 116.203 17.5426 116.406 17.2017C116.615 16.8608 116.719 16.4891 116.719 16.0866V14.8011C116.638 14.8674 116.501 14.929 116.307 14.9858C116.117 15.0426 115.904 15.0923 115.668 15.1349C115.431 15.1776 115.196 15.2154 114.964 15.2486C114.732 15.2817 114.531 15.3101 114.361 15.3338C113.977 15.3859 113.634 15.4711 113.331 15.5895C113.028 15.7079 112.789 15.8736 112.614 16.0866C112.438 16.295 112.351 16.5649 112.351 16.8963C112.351 17.3698 112.524 17.7273 112.869 17.9688C113.215 18.2102 113.655 18.331 114.19 18.331ZM124.439 5.45455V20H121.868V5.45455H124.439ZM135.705 11.9744L133.361 12.2301C133.295 11.9934 133.179 11.7708 133.013 11.5625C132.852 11.3542 132.634 11.1861 132.36 11.0582C132.085 10.9304 131.749 10.8665 131.351 10.8665C130.816 10.8665 130.366 10.9825 130.002 11.2145C129.642 11.4465 129.464 11.7472 129.469 12.1165C129.464 12.4337 129.58 12.6918 129.817 12.8906C130.059 13.0895 130.456 13.2528 131.01 13.3807L132.871 13.7784C133.903 14.0009 134.67 14.3537 135.172 14.8366C135.679 15.3196 135.935 15.9517 135.939 16.733C135.935 17.4195 135.733 18.0256 135.336 18.5511C134.943 19.072 134.396 19.4792 133.695 19.7727C132.994 20.0663 132.189 20.2131 131.28 20.2131C129.945 20.2131 128.87 19.9337 128.056 19.375C127.241 18.8116 126.756 18.0279 126.6 17.0241L129.107 16.7827C129.221 17.2751 129.462 17.6468 129.831 17.8977C130.201 18.1487 130.681 18.2741 131.273 18.2741C131.884 18.2741 132.374 18.1487 132.743 17.8977C133.117 17.6468 133.304 17.3366 133.304 16.9673C133.304 16.6548 133.184 16.3968 132.942 16.1932C132.705 15.9896 132.336 15.8333 131.834 15.7244L129.973 15.3338C128.927 15.116 128.153 14.7491 127.651 14.233C127.149 13.7121 126.9 13.054 126.905 12.2585C126.9 11.5862 127.083 11.0038 127.452 10.5114C127.826 10.0142 128.345 9.63068 129.007 9.3608C129.675 9.08617 130.444 8.94886 131.316 8.94886C132.594 8.94886 133.6 9.22112 134.334 9.76562C135.073 10.3101 135.53 11.0464 135.705 11.9744Z" fill="white"/>
<rect y="41" width="97" height="33" rx="16" fill="url(#paint0_linear_2301_6689)"/>
<path d="M19.0824 63L16.2983 52.8182H17.5511L19.679 61.1108H19.7784L21.946 52.8182H23.3381L25.5057 61.1108H25.6051L27.733 52.8182H28.9858L26.2017 63H24.929L22.6818 54.8864H22.6023L20.3551 63H19.0824ZM30.522 63V52.8182H33.9624C34.7578 52.8182 35.4107 52.9541 35.9212 53.2259C36.4316 53.4943 36.8094 53.8639 37.0547 54.3345C37.3 54.8052 37.4226 55.3404 37.4226 55.9403C37.4226 56.5402 37.3 57.0722 37.0547 57.5362C36.8094 58.0002 36.4332 58.3648 35.9261 58.63C35.419 58.8918 34.7711 59.0227 33.9822 59.0227H31.1982V57.9091H33.9425C34.486 57.9091 34.9235 57.8295 35.255 57.6705C35.5897 57.5114 35.8317 57.286 35.9808 56.9943C36.1333 56.6993 36.2095 56.348 36.2095 55.9403C36.2095 55.5327 36.1333 55.1764 35.9808 54.8714C35.8284 54.5665 35.5848 54.3312 35.25 54.1655C34.9152 53.9964 34.4728 53.9119 33.9226 53.9119H31.755V63H30.522ZM35.3146 58.4261L37.8203 63H36.3885L33.9226 58.4261H35.3146ZM48.9828 55.3636C48.9231 54.8598 48.6812 54.4688 48.2569 54.1903C47.8327 53.9119 47.3123 53.7727 46.6958 53.7727C46.2451 53.7727 45.8507 53.8456 45.5126 53.9915C45.1779 54.1373 44.916 54.3378 44.7271 54.593C44.5415 54.8482 44.4487 55.1383 44.4487 55.4631C44.4487 55.7348 44.5133 55.9685 44.6426 56.1641C44.7752 56.3563 44.9442 56.517 45.1497 56.6463C45.3552 56.7723 45.5706 56.8767 45.796 56.9595C46.0214 57.0391 46.2285 57.1037 46.4174 57.1534L47.4515 57.4318C47.7167 57.5014 48.0117 57.5975 48.3365 57.7202C48.6646 57.8428 48.9778 58.0102 49.2761 58.2223C49.5777 58.4311 49.8263 58.6996 50.0218 59.0277C50.2174 59.3558 50.3152 59.7585 50.3152 60.2358C50.3152 60.786 50.171 61.2831 49.8826 61.7273C49.5976 62.1714 49.18 62.5244 48.6298 62.7862C48.0829 63.0481 47.4184 63.179 46.6362 63.179C45.907 63.179 45.2756 63.0613 44.742 62.826C44.2117 62.5907 43.7941 62.2625 43.4892 61.8416C43.1876 61.4207 43.0169 60.9318 42.9771 60.375H44.2498C44.283 60.7595 44.4122 61.0777 44.6376 61.3295C44.8663 61.5781 45.1547 61.7637 45.5027 61.8864C45.854 62.0057 46.2318 62.0653 46.6362 62.0653C47.1068 62.0653 47.5294 61.9891 47.9039 61.8366C48.2785 61.6809 48.5751 61.4654 48.7939 61.1903C49.0126 60.9119 49.122 60.5871 49.122 60.2159C49.122 59.8778 49.0275 59.6027 48.8386 59.3906C48.6497 59.1785 48.4011 59.0062 48.0929 58.8736C47.7846 58.741 47.4515 58.625 47.0936 58.5256L45.8407 58.1676C45.0453 57.9389 44.4155 57.6125 43.9515 57.1882C43.4875 56.764 43.2555 56.2088 43.2555 55.5227C43.2555 54.9527 43.4096 54.4555 43.7179 54.0312C44.0294 53.6037 44.447 53.2723 44.9707 53.0369C45.4977 52.7983 46.086 52.679 46.7356 52.679C47.3919 52.679 47.9752 52.7966 48.4856 53.032C48.996 53.264 49.4004 53.5821 49.6987 53.9865C50.0003 54.3909 50.1594 54.8499 50.176 55.3636H48.9828ZM55.2855 63.1591C54.5696 63.1591 53.9531 62.9901 53.4361 62.652C52.919 62.3139 52.5213 61.8482 52.2429 61.255C51.9645 60.6617 51.8253 59.9839 51.8253 59.2216C51.8253 58.446 51.9678 57.7616 52.2528 57.1683C52.5412 56.5717 52.9422 56.1061 53.456 55.7713C53.973 55.4332 54.5762 55.2642 55.2656 55.2642C55.8026 55.2642 56.2865 55.3636 56.7173 55.5625C57.1482 55.7614 57.5012 56.0398 57.7763 56.3977C58.0514 56.7557 58.2221 57.1733 58.2884 57.6506H57.1151C57.0256 57.3026 56.8267 56.9943 56.5185 56.7259C56.2135 56.4541 55.8026 56.3182 55.2855 56.3182C54.8281 56.3182 54.4271 56.4375 54.0824 56.6761C53.741 56.9115 53.4742 57.2446 53.282 57.6754C53.093 58.103 52.9986 58.6051 52.9986 59.1818C52.9986 59.7718 53.0914 60.2855 53.277 60.723C53.4659 61.1605 53.7311 61.5002 54.0724 61.7422C54.4171 61.9841 54.8215 62.1051 55.2855 62.1051C55.5904 62.1051 55.8672 62.0521 56.1158 61.946C56.3643 61.84 56.5748 61.6875 56.7472 61.4886C56.9195 61.2898 57.0421 61.0511 57.1151 60.7727H58.2884C58.2221 61.2235 58.058 61.6295 57.7962 61.9908C57.5376 62.3487 57.1946 62.6338 56.767 62.8459C56.3428 63.0547 55.849 63.1591 55.2855 63.1591ZM63.1058 63.1591C62.4164 63.1591 61.8116 62.995 61.2912 62.6669C60.7741 62.3388 60.3698 61.8797 60.0781 61.2898C59.7898 60.6998 59.6456 60.0104 59.6456 59.2216C59.6456 58.4261 59.7898 57.7318 60.0781 57.1385C60.3698 56.5452 60.7741 56.0845 61.2912 55.7564C61.8116 55.4283 62.4164 55.2642 63.1058 55.2642C63.7952 55.2642 64.3984 55.4283 64.9155 55.7564C65.4358 56.0845 65.8402 56.5452 66.1286 57.1385C66.4202 57.7318 66.5661 58.4261 66.5661 59.2216C66.5661 60.0104 66.4202 60.6998 66.1286 61.2898C65.8402 61.8797 65.4358 62.3388 64.9155 62.6669C64.3984 62.995 63.7952 63.1591 63.1058 63.1591ZM63.1058 62.1051C63.6295 62.1051 64.0604 61.9709 64.3984 61.7024C64.7365 61.4339 64.9867 61.081 65.1491 60.6435C65.3116 60.206 65.3928 59.732 65.3928 59.2216C65.3928 58.7112 65.3116 58.2356 65.1491 57.7947C64.9867 57.3539 64.7365 56.9976 64.3984 56.7259C64.0604 56.4541 63.6295 56.3182 63.1058 56.3182C62.5821 56.3182 62.1513 56.4541 61.8132 56.7259C61.4751 56.9976 61.2249 57.3539 61.0625 57.7947C60.9001 58.2356 60.8189 58.7112 60.8189 59.2216C60.8189 59.732 60.9001 60.206 61.0625 60.6435C61.2249 61.081 61.4751 61.4339 61.8132 61.7024C62.1513 61.9709 62.5821 62.1051 63.1058 62.1051ZM68.3571 63V55.3636H69.4906V56.517H69.5701C69.7093 56.1392 69.9612 55.8326 70.3258 55.5973C70.6904 55.362 71.1014 55.2443 71.5588 55.2443C71.6449 55.2443 71.7527 55.246 71.8819 55.2493C72.0112 55.2526 72.109 55.2576 72.1752 55.2642V56.4574C72.1355 56.4474 72.0443 56.4325 71.9018 56.4126C71.7626 56.3894 71.6151 56.3778 71.4593 56.3778C71.0881 56.3778 70.7567 56.4557 70.465 56.6115C70.1767 56.764 69.948 56.9761 69.7789 57.2479C69.6132 57.5163 69.5304 57.8229 69.5304 58.1676V63H68.3571ZM76.5353 63.1591C75.7995 63.1591 75.1648 62.9967 74.6312 62.6719C74.1009 62.3438 73.6916 61.8864 73.4032 61.2997C73.1182 60.7098 72.9757 60.0237 72.9757 59.2415C72.9757 58.4593 73.1182 57.7699 73.4032 57.1733C73.6916 56.5734 74.0926 56.1061 74.6064 55.7713C75.1234 55.4332 75.7266 55.2642 76.416 55.2642C76.8137 55.2642 77.2065 55.3305 77.5943 55.4631C77.9821 55.5956 78.3351 55.8111 78.6532 56.1094C78.9714 56.4044 79.225 56.7955 79.4139 57.2827C79.6028 57.7699 79.6973 58.3698 79.6973 59.0824V59.5795H73.8109V58.5653H78.5041C78.5041 58.1345 78.4179 57.75 78.2456 57.4119C78.0765 57.0739 77.8346 56.8071 77.5197 56.6115C77.2082 56.416 76.8403 56.3182 76.416 56.3182C75.9487 56.3182 75.5443 56.4342 75.2029 56.6662C74.8649 56.8949 74.6047 57.1932 74.4224 57.5611C74.2401 57.929 74.149 58.3234 74.149 58.7443V59.4205C74.149 59.9972 74.2484 60.486 74.4473 60.8871C74.6494 61.2848 74.9295 61.5881 75.2875 61.7969C75.6454 62.0024 76.0614 62.1051 76.5353 62.1051C76.8436 62.1051 77.122 62.062 77.3706 61.9759C77.6225 61.8864 77.8395 61.7538 78.0218 61.5781C78.2041 61.3991 78.345 61.1771 78.4444 60.9119L79.5779 61.2301C79.4586 61.6146 79.2581 61.9527 78.9764 62.2443C78.6947 62.5327 78.3467 62.758 77.9324 62.9205C77.5181 63.0795 77.0524 63.1591 76.5353 63.1591Z" fill="white"/>
<rect x="105" y="41" width="78" height="33" rx="16" fill="white" fill-opacity="0.1"/>
<path d="M122.233 52.8182H123.705L127.165 61.2699H127.284L130.744 52.8182H132.216V63H131.062V55.2642H130.963L127.781 63H126.668L123.486 55.2642H123.386V63H122.233V52.8182ZM136.776 63.179C136.292 63.179 135.853 63.0878 135.459 62.9055C135.064 62.7199 134.751 62.4531 134.519 62.1051C134.287 61.7538 134.171 61.3295 134.171 60.8324C134.171 60.3949 134.257 60.0402 134.43 59.7685C134.602 59.4934 134.832 59.2779 135.121 59.1222C135.409 58.9664 135.727 58.8504 136.075 58.7741C136.426 58.6946 136.779 58.6316 137.134 58.5852C137.598 58.5256 137.974 58.4808 138.263 58.451C138.554 58.4179 138.766 58.3632 138.899 58.2869C139.035 58.2107 139.103 58.0781 139.103 57.8892V57.8494C139.103 57.3589 138.969 56.9777 138.7 56.706C138.435 56.4342 138.032 56.2983 137.492 56.2983C136.932 56.2983 136.493 56.4209 136.175 56.6662C135.856 56.9115 135.633 57.1733 135.503 57.4517L134.39 57.054C134.589 56.59 134.854 56.2287 135.185 55.9702C135.52 55.7083 135.885 55.526 136.279 55.4233C136.677 55.3172 137.068 55.2642 137.452 55.2642C137.698 55.2642 137.979 55.294 138.297 55.3537C138.619 55.41 138.929 55.5277 139.227 55.7067C139.529 55.8857 139.779 56.1558 139.978 56.517C140.177 56.8783 140.276 57.3622 140.276 57.9688V63H139.103V61.9659H139.043C138.964 62.1316 138.831 62.3089 138.645 62.4979C138.46 62.6868 138.213 62.8475 137.905 62.9801C137.596 63.1127 137.22 63.179 136.776 63.179ZM136.955 62.125C137.419 62.125 137.81 62.0339 138.128 61.8516C138.45 61.6693 138.692 61.4339 138.854 61.1456C139.02 60.8572 139.103 60.554 139.103 60.2358V59.1619C139.053 59.2216 138.944 59.2763 138.775 59.326C138.609 59.3724 138.417 59.4138 138.198 59.4503C137.983 59.4834 137.772 59.5133 137.567 59.5398C137.364 59.563 137.2 59.5829 137.074 59.5994C136.769 59.6392 136.484 59.7038 136.219 59.7933C135.957 59.8795 135.745 60.0104 135.583 60.1861C135.424 60.3584 135.344 60.5937 135.344 60.892C135.344 61.2997 135.495 61.608 135.797 61.8168C136.102 62.0223 136.488 62.125 136.955 62.125ZM142.418 63V55.3636H143.551V56.517H143.631C143.77 56.1392 144.022 55.8326 144.386 55.5973C144.751 55.362 145.162 55.2443 145.619 55.2443C145.705 55.2443 145.813 55.246 145.942 55.2493C146.072 55.2526 146.17 55.2576 146.236 55.2642V56.4574C146.196 56.4474 146.105 56.4325 145.962 56.4126C145.823 56.3894 145.676 56.3778 145.52 56.3778C145.149 56.3778 144.817 56.4557 144.526 56.6115C144.237 56.764 144.009 56.9761 143.839 57.2479C143.674 57.5163 143.591 57.8229 143.591 58.1676V63H142.418ZM150.477 66.0227C149.91 66.0227 149.423 65.9498 149.015 65.804C148.607 65.6615 148.268 65.4725 147.996 65.2372C147.727 65.0052 147.513 64.7566 147.354 64.4915L148.289 63.8352C148.395 63.9744 148.529 64.1335 148.692 64.3125C148.854 64.4948 149.076 64.6522 149.358 64.7848C149.643 64.9207 150.016 64.9886 150.477 64.9886C151.093 64.9886 151.602 64.8395 152.003 64.5412C152.404 64.2429 152.604 63.7756 152.604 63.1392V61.5881H152.505C152.419 61.7273 152.296 61.8996 152.137 62.1051C151.981 62.3073 151.756 62.4879 151.461 62.647C151.169 62.8028 150.775 62.8807 150.278 62.8807C149.661 62.8807 149.108 62.7348 148.617 62.4432C148.13 62.1515 147.744 61.7273 147.459 61.1705C147.177 60.6136 147.036 59.9375 147.036 59.142C147.036 58.3598 147.174 57.6787 147.449 57.0987C147.724 56.5154 148.107 56.0646 148.597 55.7464C149.088 55.425 149.655 55.2642 150.298 55.2642C150.795 55.2642 151.189 55.3471 151.481 55.5128C151.776 55.6752 152.001 55.8608 152.157 56.0696C152.316 56.2751 152.439 56.4441 152.525 56.5767H152.644V55.3636H153.778V63.2188C153.778 63.875 153.629 64.4086 153.33 64.8196C153.035 65.2339 152.638 65.5372 152.137 65.7294C151.64 65.925 151.086 66.0227 150.477 66.0227ZM150.437 61.8267C150.907 61.8267 151.305 61.719 151.63 61.5036C151.955 61.2881 152.202 60.9782 152.371 60.5739C152.54 60.1695 152.624 59.6856 152.624 59.1222C152.624 58.572 152.541 58.0864 152.376 57.6655C152.21 57.2446 151.965 56.9148 151.64 56.6761C151.315 56.4375 150.914 56.3182 150.437 56.3182C149.94 56.3182 149.525 56.4441 149.194 56.696C148.866 56.9479 148.619 57.286 148.453 57.7102C148.291 58.1345 148.21 58.6051 148.21 59.1222C148.21 59.6525 148.292 60.1214 148.458 60.5291C148.627 60.9335 148.876 61.2517 149.204 61.4837C149.535 61.7124 149.946 61.8267 150.437 61.8267ZM155.925 63V55.3636H157.099V63H155.925ZM156.522 54.0909C156.293 54.0909 156.096 54.013 155.93 53.8572C155.768 53.7015 155.687 53.5142 155.687 53.2955C155.687 53.0767 155.768 52.8894 155.93 52.7337C156.096 52.5779 156.293 52.5 156.522 52.5C156.751 52.5 156.946 52.5779 157.109 52.7337C157.274 52.8894 157.357 53.0767 157.357 53.2955C157.357 53.5142 157.274 53.7015 157.109 53.8572C156.946 54.013 156.751 54.0909 156.522 54.0909ZM160.421 58.4062V63H159.248V55.3636H160.381V56.5568H160.481C160.66 56.169 160.931 55.8575 161.296 55.6222C161.661 55.3835 162.131 55.2642 162.708 55.2642C163.225 55.2642 163.677 55.3703 164.065 55.5824C164.453 55.7912 164.755 56.1094 164.97 56.5369C165.185 56.9612 165.293 57.4981 165.293 58.1477V63H164.12V58.2273C164.12 57.6274 163.964 57.16 163.653 56.8253C163.341 56.4872 162.913 56.3182 162.37 56.3182C161.995 56.3182 161.661 56.3994 161.366 56.5618C161.074 56.7242 160.844 56.9612 160.675 57.2727C160.506 57.5843 160.421 57.9621 160.421 58.4062Z" fill="#DCDCDC"/>
<rect x="191" y="41" width="81" height="33" rx="16" fill="white" fill-opacity="0.1"/>
<path d="M215.193 56C215.084 55.6652 214.94 55.3653 214.761 55.1001C214.585 54.8317 214.375 54.603 214.129 54.4141C213.887 54.2251 213.612 54.081 213.304 53.9815C212.996 53.8821 212.658 53.8324 212.29 53.8324C211.687 53.8324 211.138 53.9882 210.644 54.2997C210.15 54.6113 209.758 55.0703 209.466 55.6768C209.174 56.2834 209.028 57.0275 209.028 57.9091C209.028 58.7907 209.176 59.5348 209.471 60.1413C209.766 60.7479 210.165 61.2069 210.669 61.5185C211.173 61.83 211.74 61.9858 212.369 61.9858C212.953 61.9858 213.466 61.8615 213.911 61.6129C214.358 61.361 214.706 61.0064 214.955 60.549C215.206 60.0883 215.332 59.5464 215.332 58.9233L215.71 59.0028H212.648V57.9091H216.526V59.0028C216.526 59.8414 216.347 60.5705 215.989 61.1903C215.634 61.8101 215.143 62.2907 214.517 62.6321C213.894 62.9702 213.178 63.1392 212.369 63.1392C211.468 63.1392 210.676 62.9271 209.993 62.5028C209.313 62.0786 208.783 61.4754 208.402 60.6932C208.024 59.911 207.835 58.983 207.835 57.9091C207.835 57.1037 207.943 56.3795 208.158 55.7365C208.377 55.0902 208.685 54.54 209.083 54.0859C209.481 53.6319 209.951 53.2839 210.495 53.0419C211.039 52.8 211.637 52.679 212.29 52.679C212.827 52.679 213.327 52.7602 213.791 52.9226C214.259 53.0817 214.674 53.3087 215.039 53.6037C215.407 53.8954 215.714 54.245 215.959 54.6527C216.204 55.0571 216.373 55.5062 216.466 56H215.193ZM218.478 63V55.3636H219.612V56.517H219.691C219.83 56.1392 220.082 55.8326 220.447 55.5973C220.811 55.362 221.222 55.2443 221.68 55.2443C221.766 55.2443 221.874 55.246 222.003 55.2493C222.132 55.2526 222.23 55.2576 222.296 55.2642V56.4574C222.257 56.4474 222.165 56.4325 222.023 56.4126C221.884 56.3894 221.736 56.3778 221.58 56.3778C221.209 56.3778 220.878 56.4557 220.586 56.6115C220.298 56.764 220.069 56.9761 219.9 57.2479C219.734 57.5163 219.651 57.8229 219.651 58.1676V63H218.478ZM226.557 63.1591C225.868 63.1591 225.263 62.995 224.742 62.6669C224.225 62.3388 223.821 61.8797 223.529 61.2898C223.241 60.6998 223.097 60.0104 223.097 59.2216C223.097 58.4261 223.241 57.7318 223.529 57.1385C223.821 56.5452 224.225 56.0845 224.742 55.7564C225.263 55.4283 225.868 55.2642 226.557 55.2642C227.246 55.2642 227.85 55.4283 228.367 55.7564C228.887 56.0845 229.291 56.5452 229.58 57.1385C229.871 57.7318 230.017 58.4261 230.017 59.2216C230.017 60.0104 229.871 60.6998 229.58 61.2898C229.291 61.8797 228.887 62.3388 228.367 62.6669C227.85 62.995 227.246 63.1591 226.557 63.1591ZM226.557 62.1051C227.081 62.1051 227.512 61.9709 227.85 61.7024C228.188 61.4339 228.438 61.081 228.6 60.6435C228.763 60.206 228.844 59.732 228.844 59.2216C228.844 58.7112 228.763 58.2356 228.6 57.7947C228.438 57.3539 228.188 56.9976 227.85 56.7259C227.512 56.4541 227.081 56.3182 226.557 56.3182C226.033 56.3182 225.602 56.4541 225.264 56.7259C224.926 56.9976 224.676 57.3539 224.514 57.7947C224.351 58.2356 224.27 58.7112 224.27 59.2216C224.27 59.732 224.351 60.206 224.514 60.6435C224.676 61.081 224.926 61.4339 225.264 61.7024C225.602 61.9709 226.033 62.1051 226.557 62.1051ZM233.279 63L230.952 55.3636H232.185L233.835 61.2102H233.915L235.546 55.3636H236.798L238.409 61.1903H238.489L240.139 55.3636H241.372L239.046 63H237.892L236.222 57.1335H236.102L234.432 63H233.279ZM246.244 55.3636V56.358H242.287V55.3636H246.244ZM243.441 53.5341H244.614V60.8125C244.614 61.1439 244.662 61.3925 244.758 61.5582C244.857 61.7206 244.983 61.83 245.136 61.8864C245.292 61.9394 245.456 61.9659 245.628 61.9659C245.757 61.9659 245.863 61.9593 245.946 61.946C246.029 61.9295 246.095 61.9162 246.145 61.9062L246.384 62.9602C246.304 62.9901 246.193 63.0199 246.051 63.0497C245.908 63.0829 245.727 63.0994 245.509 63.0994C245.177 63.0994 244.852 63.0282 244.534 62.8857C244.219 62.7431 243.958 62.526 243.749 62.2344C243.543 61.9427 243.441 61.5748 243.441 61.1307V53.5341ZM249.347 58.4062V63H248.173V52.8182H249.347V56.5568H249.446C249.625 56.1624 249.894 55.8492 250.252 55.6172C250.613 55.3819 251.093 55.2642 251.693 55.2642C252.214 55.2642 252.669 55.3686 253.061 55.5774C253.452 55.7829 253.755 56.0994 253.97 56.527C254.189 56.9512 254.298 57.4915 254.298 58.1477V63H253.125V58.2273C253.125 57.6207 252.968 57.1518 252.653 56.8203C252.341 56.4856 251.909 56.3182 251.355 56.3182C250.971 56.3182 250.626 56.3994 250.321 56.5618C250.02 56.7242 249.781 56.9612 249.605 57.2727C249.433 57.5843 249.347 57.9621 249.347 58.4062Z" fill="#DCDCDC"/>
<rect x="280" y="41" width="64" height="33" rx="16" fill="white" fill-opacity="0.1"/>
<path d="M300.375 63H297.233V52.8182H300.514C301.502 52.8182 302.347 53.022 303.05 53.4297C303.752 53.834 304.291 54.4157 304.665 55.1747C305.04 55.9304 305.227 56.8352 305.227 57.8892C305.227 58.9498 305.038 59.8629 304.661 60.6286C304.283 61.3909 303.732 61.9775 303.01 62.3885C302.287 62.7962 301.409 63 300.375 63ZM298.466 61.9062H300.295C301.137 61.9062 301.835 61.7438 302.388 61.419C302.942 61.0942 303.355 60.6319 303.626 60.032C303.898 59.4321 304.034 58.7178 304.034 57.8892C304.034 57.0672 303.9 56.3596 303.631 55.7663C303.363 55.1697 302.962 54.7124 302.428 54.3942C301.895 54.0727 301.23 53.9119 300.435 53.9119H298.466V61.9062ZM310.338 63.1591C309.602 63.1591 308.968 62.9967 308.434 62.6719C307.904 62.3438 307.494 61.8864 307.206 61.2997C306.921 60.7098 306.778 60.0237 306.778 59.2415C306.778 58.4593 306.921 57.7699 307.206 57.1733C307.494 56.5734 307.895 56.1061 308.409 55.7713C308.926 55.4332 309.529 55.2642 310.219 55.2642C310.616 55.2642 311.009 55.3305 311.397 55.4631C311.785 55.5956 312.138 55.8111 312.456 56.1094C312.774 56.4044 313.028 56.7955 313.217 57.2827C313.406 57.7699 313.5 58.3698 313.5 59.0824V59.5795H307.614V58.5653H312.307C312.307 58.1345 312.221 57.75 312.048 57.4119C311.879 57.0739 311.637 56.8071 311.322 56.6115C311.011 56.416 310.643 56.3182 310.219 56.3182C309.751 56.3182 309.347 56.4342 309.006 56.6662C308.668 56.8949 308.407 57.1932 308.225 57.5611C308.043 57.929 307.952 58.3234 307.952 58.7443V59.4205C307.952 59.9972 308.051 60.486 308.25 60.8871C308.452 61.2848 308.732 61.5881 309.09 61.7969C309.448 62.0024 309.864 62.1051 310.338 62.1051C310.646 62.1051 310.925 62.062 311.173 61.9759C311.425 61.8864 311.642 61.7538 311.825 61.5781C312.007 61.3991 312.148 61.1771 312.247 60.9119L313.381 61.2301C313.261 61.6146 313.061 61.9527 312.779 62.2443C312.497 62.5327 312.149 62.758 311.735 62.9205C311.321 63.0795 310.855 63.1591 310.338 63.1591ZM315.444 63V52.8182H316.617V56.5767H316.717C316.803 56.4441 316.922 56.2751 317.075 56.0696C317.23 55.8608 317.452 55.6752 317.741 55.5128C318.032 55.3471 318.427 55.2642 318.924 55.2642C319.567 55.2642 320.134 55.425 320.624 55.7464C321.115 56.0679 321.498 56.5237 321.773 57.1136C322.048 57.7036 322.185 58.3996 322.185 59.2017C322.185 60.0104 322.048 60.7114 321.773 61.3047C321.498 61.8946 321.116 62.352 320.629 62.6768C320.142 62.9983 319.58 63.1591 318.944 63.1591C318.453 63.1591 318.061 63.0779 317.766 62.9155C317.471 62.7498 317.244 62.5625 317.085 62.3537C316.925 62.1416 316.803 61.9659 316.717 61.8267H316.577V63H315.444ZM316.597 59.1818C316.597 59.7585 316.682 60.2673 316.851 60.7081C317.02 61.1456 317.267 61.4886 317.592 61.7372C317.916 61.9825 318.314 62.1051 318.785 62.1051C319.275 62.1051 319.685 61.9759 320.013 61.7173C320.344 61.4555 320.593 61.1042 320.759 60.6634C320.928 60.2192 321.012 59.7254 321.012 59.1818C321.012 58.6449 320.929 58.161 320.763 57.7301C320.601 57.2959 320.354 56.9529 320.023 56.701C319.695 56.4458 319.282 56.3182 318.785 56.3182C318.308 56.3182 317.906 56.4392 317.582 56.6811C317.257 56.9197 317.012 57.2545 316.846 57.6854C316.68 58.1129 316.597 58.6117 316.597 59.1818ZM327.301 55.3636V56.358H323.344V55.3636H327.301ZM324.497 53.5341H325.67V60.8125C325.67 61.1439 325.719 61.3925 325.815 61.5582C325.914 61.7206 326.04 61.83 326.192 61.8864C326.348 61.9394 326.512 61.9659 326.685 61.9659C326.814 61.9659 326.92 61.9593 327.003 61.946C327.086 61.9295 327.152 61.9162 327.202 61.9062L327.44 62.9602C327.361 62.9901 327.25 63.0199 327.107 63.0497C326.965 63.0829 326.784 63.0994 326.565 63.0994C326.234 63.0994 325.909 63.0282 325.591 62.8857C325.276 62.7431 325.014 62.526 324.805 62.2344C324.6 61.9427 324.497 61.5748 324.497 61.1307V53.5341Z" fill="#DCDCDC"/>
<rect x="352" y="41" width="57" height="33" rx="16" fill="white" fill-opacity="0.1"/>
<path d="M369.233 63V52.8182H375.378V53.9119H370.466V57.3523H375.06V58.446H370.466V61.9062H375.457V63H369.233ZM377.441 65.8636V55.3636H378.575V56.5767H378.714C378.8 56.4441 378.919 56.2751 379.072 56.0696C379.228 55.8608 379.45 55.6752 379.738 55.5128C380.03 55.3471 380.424 55.2642 380.921 55.2642C381.564 55.2642 382.131 55.425 382.621 55.7464C383.112 56.0679 383.495 56.5237 383.77 57.1136C384.045 57.7036 384.183 58.3996 384.183 59.2017C384.183 60.0104 384.045 60.7114 383.77 61.3047C383.495 61.8946 383.114 62.352 382.626 62.6768C382.139 62.9983 381.577 63.1591 380.941 63.1591C380.451 63.1591 380.058 63.0779 379.763 62.9155C379.468 62.7498 379.241 62.5625 379.082 62.3537C378.923 62.1416 378.8 61.9659 378.714 61.8267H378.614V65.8636H377.441ZM378.594 59.1818C378.594 59.7585 378.679 60.2673 378.848 60.7081C379.017 61.1456 379.264 61.4886 379.589 61.7372C379.914 61.9825 380.311 62.1051 380.782 62.1051C381.272 62.1051 381.682 61.9759 382.01 61.7173C382.341 61.4555 382.59 61.1042 382.756 60.6634C382.925 60.2192 383.009 59.7254 383.009 59.1818C383.009 58.6449 382.926 58.161 382.761 57.7301C382.598 57.2959 382.351 56.9529 382.02 56.701C381.692 56.4458 381.279 56.3182 380.782 56.3182C380.305 56.3182 379.904 56.4392 379.579 56.6811C379.254 56.9197 379.009 57.2545 378.843 57.6854C378.677 58.1129 378.594 58.6117 378.594 59.1818ZM391.381 57.0739L390.327 57.3722C390.261 57.1965 390.163 57.0258 390.034 56.8601C389.908 56.6911 389.736 56.5518 389.517 56.4425C389.298 56.3331 389.018 56.2784 388.677 56.2784C388.21 56.2784 387.82 56.3861 387.509 56.6016C387.2 56.8137 387.046 57.0838 387.046 57.4119C387.046 57.7036 387.152 57.9339 387.364 58.103C387.576 58.272 387.908 58.4129 388.359 58.5256L389.492 58.804C390.175 58.9697 390.684 59.2232 391.018 59.5646C391.353 59.9027 391.521 60.3385 391.521 60.8722C391.521 61.3097 391.395 61.7008 391.143 62.0455C390.894 62.3902 390.546 62.6619 390.099 62.8608C389.651 63.0597 389.131 63.1591 388.538 63.1591C387.759 63.1591 387.114 62.9901 386.604 62.652C386.093 62.3139 385.77 61.8201 385.634 61.1705L386.748 60.892C386.854 61.303 387.054 61.6113 387.349 61.8168C387.648 62.0223 388.037 62.125 388.518 62.125C389.065 62.125 389.499 62.009 389.82 61.777C390.145 61.5417 390.308 61.2599 390.308 60.9318C390.308 60.6667 390.215 60.4446 390.029 60.2656C389.844 60.0833 389.558 59.9474 389.174 59.858L387.901 59.5597C387.202 59.3939 386.688 59.1371 386.36 58.7891C386.035 58.4377 385.873 57.9986 385.873 57.4716C385.873 57.0407 385.994 56.6596 386.236 56.3281C386.481 55.9967 386.814 55.7365 387.235 55.5476C387.659 55.3587 388.14 55.2642 388.677 55.2642C389.433 55.2642 390.026 55.4299 390.457 55.7614C390.891 56.0928 391.199 56.5303 391.381 57.0739Z" fill="#DCDCDC"/>
<line opacity="0.62" x1="33" y1="89.5" x2="327" y2="89.5" stroke="#F2F2F2" stroke-opacity="0.2" stroke-dasharray="9 9"/>
<line opacity="0.62" x1="33" y1="133.5" x2="327" y2="133.5" stroke="#F2F2F2" stroke-opacity="0.2" stroke-dasharray="9 9"/>
<line opacity="0.62" x1="33" y1="177.5" x2="327" y2="177.5" stroke="#F2F2F2" stroke-opacity="0.2" stroke-dasharray="9 9"/>
<line opacity="0.62" x1="33" y1="221.5" x2="327" y2="221.5" stroke="#F2F2F2" stroke-opacity="0.2" stroke-dasharray="9 9"/>
<path d="M67.4916 146.708L33 129.076V222H327V96.1949L322.894 94.7653L300.721 123.834L291.687 120.975L263.765 148.137L260.48 150.52L232.148 118.592L223.525 123.834L207.922 94.7653H205.047L186.98 118.592H184.927L172.609 136.7L158.237 158.144L154.542 161.004L146.33 150.043L129.084 93.8123L124.978 90L118.408 93.8123L106.5 124.787L101.983 129.076L92.9497 122.404L84.7374 124.787L67.4916 146.708Z" fill="url(#paint1_linear_2301_6689)"/>
<path d="M33 129.146L63.3884 144.727C66.3936 146.268 70.0947 145.04 71.7894 142.119C77.0925 132.978 88.6469 116.377 98.1501 125.844C110.933 138.578 111.678 86.6798 126.602 90.4723C134.024 92.3584 135.588 116.527 142.271 136.692C146.724 150.127 148.929 157.619 153.909 159.682C155.798 160.464 157.782 159.233 158.886 157.512L183.491 119.135C183.943 118.43 184.9 118.262 185.565 118.769V118.769C186.232 119.277 187.191 119.107 187.642 118.401L199.965 99.0958C202.497 95.1296 208.401 95.4884 210.434 99.732L219.432 118.517C220.955 121.694 224.874 122.882 227.904 121.085L228.915 120.485C231.487 118.961 234.788 119.561 236.658 121.894L256.375 146.497C258.628 149.307 262.831 149.514 265.349 146.938L288.828 122.909C290.675 121.019 293.554 120.586 295.875 121.85V121.85C298.557 123.311 301.91 122.486 303.607 119.947L318.253 98.0414C320.236 95.0741 324.416 94.6124 327 97.0751V97.0751" stroke="#2DC57B" stroke-width="3"/>
<path d="M40.5681 245.737L40.57 244.941L43.0371 242.398C43.3005 242.121 43.5177 241.879 43.6887 241.671C43.862 241.461 43.9915 241.261 44.0772 241.072C44.1629 240.883 44.206 240.682 44.2065 240.469C44.2071 240.227 44.1508 240.019 44.0376 239.843C43.9244 239.665 43.7696 239.529 43.5734 239.434C43.3771 239.336 43.1559 239.287 42.9097 239.287C42.6492 239.286 42.4218 239.339 42.2275 239.445C42.0331 239.551 41.8836 239.701 41.7789 239.895C41.6743 240.089 41.6217 240.316 41.621 240.576L40.5734 240.574C40.5745 240.131 40.6772 239.744 40.8816 239.413C41.086 239.082 41.366 238.826 41.7216 238.644C42.0771 238.461 42.481 238.369 42.9332 238.37C43.3901 238.372 43.7923 238.464 44.1399 238.647C44.4898 238.828 44.7627 239.074 44.9584 239.387C45.1542 239.698 45.2516 240.049 45.2506 240.439C45.25 240.709 45.1984 240.973 45.096 241.231C44.996 241.489 44.8213 241.776 44.5719 242.092C44.3226 242.407 43.976 242.788 43.5322 243.237L42.0833 244.746L42.0831 244.8L45.3573 244.807L45.355 245.748L40.5681 245.737ZM49.2326 245.879C48.6715 245.875 48.1924 245.726 47.7954 245.431C47.3984 245.137 47.0952 244.709 46.8859 244.147C46.6765 243.585 46.5728 242.909 46.5747 242.119C46.5766 241.33 46.6836 240.657 46.8956 240.099C47.11 239.541 47.4165 239.115 47.8149 238.823C48.2157 238.53 48.6943 238.384 49.2506 238.386C49.807 238.387 50.2836 238.536 50.6807 238.833C51.0777 239.128 51.3809 239.554 51.5902 240.114C51.8019 240.671 51.9068 241.343 51.9049 242.132C51.903 242.925 51.7961 243.601 51.584 244.162C51.372 244.72 51.0667 245.147 50.6683 245.442C50.2698 245.734 49.7913 245.88 49.2326 245.879ZM49.2348 244.93C49.7273 244.932 50.1125 244.692 50.3907 244.212C50.6712 243.732 50.8126 243.038 50.8148 242.129C50.8162 241.525 50.7535 241.015 50.6267 240.598C50.5022 240.179 50.3219 239.861 50.0857 239.645C49.8518 239.426 49.5727 239.317 49.2484 239.316C48.7583 239.315 48.373 239.555 48.0925 240.038C47.812 240.52 47.6695 241.215 47.6649 242.121C47.6634 242.727 47.7249 243.24 47.8494 243.659C47.9762 244.076 48.1566 244.393 48.3904 244.609C48.6243 244.822 48.9058 244.93 49.2348 244.93ZM55.9327 238.501L55.9152 245.774L54.8143 245.771L54.8292 239.6L54.7866 239.599L53.0438 240.732L53.0463 239.68L54.8638 238.499L55.9327 238.501ZM60.3396 245.884C59.8306 245.883 59.381 245.794 58.9908 245.618C58.603 245.442 58.2994 245.2 58.08 244.892C57.8605 244.583 57.7525 244.233 57.7558 243.84C57.7542 243.532 57.8176 243.249 57.946 242.991C58.0769 242.731 58.2538 242.515 58.4767 242.343C58.6997 242.168 58.9485 242.057 59.2233 242.011L59.2234 241.968C58.8614 241.88 58.5718 241.685 58.3547 241.384C58.1377 241.082 58.0308 240.737 58.0341 240.346C58.0326 239.974 58.1317 239.643 58.3312 239.352C58.5332 239.059 58.8095 238.829 59.1603 238.662C59.5111 238.495 59.9102 238.412 60.3577 238.413C60.8004 238.414 61.1955 238.5 61.5431 238.671C61.8931 238.84 62.1683 239.072 62.3689 239.366C62.5694 239.657 62.6704 239.988 62.6719 240.357C62.6686 240.748 62.5565 241.093 62.3356 241.393C62.1147 241.693 61.8277 241.887 61.4748 241.974L61.4747 242.016C61.7468 242.064 61.9916 242.176 62.209 242.352C62.4287 242.525 62.6034 242.742 62.733 243.003C62.8649 243.261 62.9317 243.544 62.9333 243.852C62.93 244.245 62.8179 244.595 62.597 244.902C62.3761 245.21 62.0701 245.45 61.679 245.625C61.2904 245.799 60.8439 245.885 60.3396 245.884ZM60.3418 244.986C60.6425 244.986 60.903 244.937 61.1234 244.839C61.3438 244.737 61.5146 244.597 61.6358 244.417C61.757 244.235 61.819 244.022 61.822 243.778C61.8202 243.525 61.7545 243.301 61.6247 243.107C61.4974 242.912 61.3237 242.759 61.1038 242.647C60.8839 242.536 60.6319 242.479 60.3478 242.479C60.0614 242.478 59.8068 242.533 59.584 242.644C59.3611 242.754 59.1856 242.907 59.0573 243.101C58.929 243.294 58.8657 243.518 58.8675 243.771C58.8645 244.015 58.922 244.228 59.0399 244.411C59.1602 244.591 59.3315 244.732 59.5538 244.835C59.7761 244.935 60.0388 244.985 60.3418 244.986ZM60.35 241.602C60.5914 241.602 60.8058 241.554 60.9931 241.457C61.1803 241.361 61.3274 241.226 61.4344 241.054C61.5437 240.881 61.5998 240.679 61.6028 240.447C61.6009 240.22 61.547 240.021 61.4408 239.85C61.3371 239.679 61.1918 239.547 61.005 239.455C60.8182 239.36 60.6017 239.312 60.3555 239.311C60.1045 239.31 59.8843 239.357 59.6946 239.452C59.5074 239.543 59.3615 239.674 59.2569 239.845C59.1523 240.015 59.1009 240.214 59.1028 240.441C59.0998 240.673 59.1514 240.875 59.2575 241.048C59.3637 241.222 59.5101 241.357 59.6969 241.454C59.8861 241.552 60.1038 241.601 60.35 241.602Z" fill="#BFBFBF"/>
<path d="M92.3896 245.862L92.3915 245.067L94.8586 242.523C95.122 242.247 95.3392 242.005 95.5102 241.797C95.6835 241.586 95.813 241.387 95.8987 241.197C95.9844 241.008 96.0275 240.807 96.028 240.594C96.0286 240.353 95.9723 240.144 95.859 239.969C95.7458 239.791 95.5911 239.654 95.3948 239.559C95.1986 239.462 94.9773 239.413 94.7311 239.412C94.4707 239.411 94.2433 239.464 94.0489 239.57C93.8545 239.676 93.705 239.826 93.6004 240.02C93.4958 240.214 93.4431 240.441 93.4425 240.701L92.3949 240.699C92.396 240.256 92.4987 239.869 92.7031 239.538C92.9075 239.207 93.1875 238.951 93.543 238.77C93.8986 238.586 94.3025 238.495 94.7546 238.496C95.2116 238.497 95.6138 238.589 95.9614 238.772C96.3113 238.953 96.5842 239.2 96.7799 239.513C96.9756 239.823 97.073 240.174 97.0721 240.565C97.0715 240.835 97.0199 241.098 96.9175 241.356C96.8174 241.614 96.6427 241.901 96.3934 242.218C96.1441 242.532 95.7975 242.914 95.3537 243.362L93.9047 244.872L93.9046 244.925L97.1788 244.933L97.1765 245.874L92.3896 245.862ZM101.054 246.004C100.493 246 100.014 245.851 99.6169 245.557C99.2199 245.262 98.9167 244.834 98.7073 244.272C98.498 243.711 98.3943 243.035 98.3962 242.244C98.3981 241.456 98.5051 240.782 98.7171 240.224C98.9315 239.666 99.2379 239.241 99.6364 238.948C100.037 238.655 100.516 238.51 101.072 238.511C101.628 238.512 102.105 238.662 102.502 238.958C102.899 239.253 103.202 239.68 103.412 240.239C103.623 240.796 103.728 241.469 103.726 242.257C103.725 243.05 103.618 243.727 103.405 244.287C103.193 244.846 102.888 245.272 102.49 245.567C102.091 245.86 101.613 246.005 101.054 246.004ZM101.056 245.056C101.549 245.057 101.934 244.818 102.212 244.338C102.493 243.858 102.634 243.163 102.636 242.254C102.638 241.651 102.575 241.14 102.448 240.723C102.324 240.304 102.143 239.986 101.907 239.77C101.673 239.552 101.394 239.442 101.07 239.441C100.58 239.44 100.195 239.681 99.914 240.163C99.6335 240.645 99.4909 241.34 99.4864 242.247C99.4849 242.853 99.5464 243.365 99.6709 243.785C99.7977 244.202 99.9781 244.518 100.212 244.734C100.446 244.948 100.727 245.055 101.056 245.056ZM107.754 238.627L107.737 245.899L106.636 245.897L106.651 239.725L106.608 239.725L104.865 240.857L104.868 239.806L106.685 238.624L107.754 238.627ZM112.14 238.538C112.464 238.541 112.784 238.601 113.098 238.718C113.413 238.835 113.697 239.025 113.949 239.288C114.204 239.551 114.407 239.907 114.558 240.355C114.71 240.8 114.787 241.354 114.788 242.017C114.786 242.654 114.721 243.221 114.592 243.718C114.463 244.212 114.279 244.63 114.039 244.97C113.801 245.31 113.513 245.569 113.174 245.746C112.835 245.922 112.453 246.01 112.03 246.009C111.596 246.008 111.212 245.922 110.876 245.751C110.54 245.579 110.268 245.343 110.058 245.042C109.848 244.739 109.717 244.39 109.666 243.997L110.749 244C110.819 244.312 110.963 244.566 111.18 244.761C111.4 244.953 111.684 245.05 112.032 245.05C112.565 245.052 112.981 244.821 113.28 244.357C113.58 243.892 113.731 243.241 113.736 242.405L113.679 242.405C113.555 242.609 113.401 242.783 113.216 242.93C113.033 243.076 112.828 243.189 112.601 243.269C112.373 243.349 112.131 243.389 111.873 243.388C111.454 243.387 111.073 243.283 110.73 243.076C110.387 242.87 110.114 242.586 109.912 242.226C109.709 241.865 109.608 241.454 109.609 240.993C109.61 240.533 109.716 240.117 109.925 239.743C110.136 239.37 110.431 239.075 110.808 238.858C111.187 238.639 111.631 238.532 112.14 238.538ZM112.141 239.461C111.864 239.461 111.614 239.529 111.392 239.665C111.171 239.8 110.997 239.983 110.868 240.215C110.74 240.444 110.675 240.699 110.675 240.981C110.674 241.263 110.735 241.519 110.857 241.749C110.982 241.976 111.152 242.158 111.368 242.293C111.585 242.426 111.833 242.493 112.113 242.494C112.321 242.494 112.515 242.455 112.695 242.374C112.876 242.294 113.033 242.184 113.169 242.042C113.304 241.898 113.41 241.735 113.486 241.553C113.562 241.37 113.6 241.179 113.601 240.978C113.601 240.71 113.538 240.461 113.411 240.231C113.286 240.001 113.114 239.816 112.894 239.676C112.674 239.534 112.423 239.462 112.141 239.461Z" fill="#BFBFBF"/>
<path d="M144.211 245.988L144.213 245.192L146.68 242.649C146.944 242.372 147.161 242.13 147.332 241.922C147.505 241.712 147.635 241.512 147.72 241.323C147.806 241.134 147.849 240.933 147.85 240.72C147.85 240.478 147.794 240.27 147.681 240.094C147.567 239.916 147.413 239.78 147.216 239.685C147.02 239.587 146.799 239.538 146.553 239.537C146.292 239.537 146.065 239.59 145.87 239.696C145.676 239.802 145.527 239.952 145.422 240.145C145.317 240.339 145.265 240.567 145.264 240.827L144.216 240.824C144.218 240.382 144.32 239.995 144.525 239.664C144.729 239.333 145.009 239.077 145.365 238.895C145.72 238.712 146.124 238.62 146.576 238.621C147.033 238.622 147.435 238.715 147.783 238.898C148.133 239.078 148.406 239.325 148.601 239.638C148.797 239.949 148.895 240.299 148.894 240.69C148.893 240.96 148.841 241.224 148.739 241.482C148.639 241.739 148.464 242.027 148.215 242.343C147.966 242.658 147.619 243.039 147.175 243.488L145.726 244.997L145.726 245.05L149 245.058L148.998 245.999L144.211 245.988ZM152.876 246.129C152.314 246.126 151.835 245.977 151.438 245.682C151.041 245.388 150.738 244.96 150.529 244.398C150.32 243.836 150.216 243.16 150.218 242.369C150.22 241.581 150.327 240.908 150.539 240.35C150.753 239.791 151.059 239.366 151.458 239.073C151.859 238.781 152.337 238.635 152.894 238.637C153.45 238.638 153.927 238.787 154.324 239.084C154.721 239.378 155.024 239.805 155.233 240.365C155.445 240.921 155.55 241.594 155.548 242.382C155.546 243.175 155.439 243.852 155.227 244.413C155.015 244.971 154.71 245.398 154.311 245.693C153.913 245.985 153.434 246.131 152.876 246.129ZM152.878 245.181C153.37 245.183 153.756 244.943 154.034 244.463C154.314 243.983 154.456 243.289 154.458 242.38C154.459 241.776 154.397 241.266 154.27 240.849C154.145 240.429 153.965 240.112 153.729 239.896C153.495 239.677 153.216 239.568 152.891 239.567C152.401 239.566 152.016 239.806 151.736 240.289C151.455 240.771 151.312 241.465 151.308 242.372C151.306 242.978 151.368 243.491 151.492 243.91C151.619 244.327 151.8 244.644 152.033 244.86C152.267 245.073 152.549 245.181 152.878 245.181ZM156.799 246.018L156.801 245.223L159.268 242.679C159.531 242.403 159.749 242.161 159.92 241.953C160.093 241.742 160.222 241.543 160.308 241.353C160.394 241.164 160.437 240.963 160.437 240.75C160.438 240.509 160.382 240.3 160.268 240.125C160.155 239.947 160 239.81 159.804 239.715C159.608 239.618 159.387 239.569 159.141 239.568C158.88 239.567 158.653 239.62 158.458 239.726C158.264 239.832 158.114 239.982 158.01 240.176C157.905 240.37 157.853 240.597 157.852 240.857L156.804 240.855C156.805 240.412 156.908 240.025 157.113 239.694C157.317 239.363 157.597 239.107 157.952 238.926C158.308 238.742 158.712 238.651 159.164 238.652C159.621 238.653 160.023 238.745 160.371 238.928C160.721 239.109 160.994 239.356 161.189 239.669C161.385 239.979 161.482 240.33 161.481 240.721C161.481 240.99 161.429 241.254 161.327 241.512C161.227 241.77 161.052 242.057 160.803 242.374C160.553 242.688 160.207 243.07 159.763 243.518L158.314 245.028L158.314 245.081L161.588 245.089L161.586 246.03L156.799 246.018ZM165.463 246.16C164.902 246.156 164.423 246.007 164.026 245.713C163.629 245.418 163.326 244.99 163.117 244.428C162.907 243.867 162.804 243.191 162.806 242.4C162.807 241.612 162.914 240.938 163.126 240.38C163.341 239.822 163.647 239.397 164.046 239.104C164.447 238.811 164.925 238.666 165.481 238.667C166.038 238.668 166.515 238.818 166.912 239.114C167.309 239.409 167.612 239.836 167.821 240.395C168.033 240.952 168.138 241.624 168.136 242.413C168.134 243.206 168.027 243.883 167.815 244.443C167.603 245.002 167.298 245.428 166.899 245.723C166.501 246.016 166.022 246.161 165.463 246.16ZM165.466 245.212C165.958 245.213 166.343 244.974 166.622 244.494C166.902 244.014 167.043 243.319 167.046 242.41C167.047 241.807 166.984 241.296 166.858 240.879C166.733 240.46 166.553 240.142 166.317 239.926C166.083 239.708 165.804 239.598 165.479 239.597C164.989 239.596 164.604 239.837 164.323 240.319C164.043 240.801 163.9 241.496 163.896 242.403C163.894 243.009 163.956 243.521 164.08 243.941C164.207 244.358 164.387 244.674 164.621 244.89C164.855 245.104 165.137 245.211 165.466 245.212Z" fill="#BFBFBF"/>
<path d="M198.033 246.118L198.034 245.323L200.502 242.779C200.765 242.503 200.982 242.26 201.153 242.053C201.327 241.842 201.456 241.642 201.542 241.453C201.627 241.264 201.67 241.063 201.671 240.85C201.672 240.608 201.615 240.4 201.502 240.225C201.389 240.047 201.234 239.91 201.038 239.815C200.842 239.717 200.62 239.668 200.374 239.668C200.114 239.667 199.886 239.72 199.692 239.826C199.498 239.932 199.348 240.082 199.243 240.276C199.139 240.47 199.086 240.697 199.086 240.957L198.038 240.955C198.039 240.512 198.142 240.125 198.346 239.794C198.551 239.463 198.83 239.207 199.186 239.026C199.542 238.842 199.945 238.751 200.398 238.752C200.855 238.753 201.257 238.845 201.604 239.028C201.954 239.209 202.227 239.456 202.423 239.769C202.619 240.079 202.716 240.43 202.715 240.82C202.714 241.09 202.663 241.354 202.56 241.612C202.46 241.87 202.286 242.157 202.036 242.474C201.787 242.788 201.44 243.169 200.997 243.618L199.548 245.127L199.548 245.181L202.822 245.189L202.819 246.13L198.033 246.118ZM206.697 246.26C206.136 246.256 205.657 246.107 205.26 245.812C204.863 245.518 204.56 245.09 204.35 244.528C204.141 243.967 204.037 243.291 204.039 242.5C204.041 241.711 204.148 241.038 204.36 240.48C204.575 239.922 204.881 239.496 205.279 239.204C205.68 238.911 206.159 238.766 206.715 238.767C207.271 238.768 207.748 238.917 208.145 239.214C208.542 239.509 208.845 239.936 209.055 240.495C209.266 241.052 209.371 241.724 209.369 242.513C209.368 243.306 209.261 243.983 209.048 244.543C208.836 245.101 208.531 245.528 208.133 245.823C207.734 246.116 207.256 246.261 206.697 246.26ZM206.699 245.312C207.192 245.313 207.577 245.074 207.855 244.594C208.136 244.114 208.277 243.419 208.279 242.51C208.281 241.906 208.218 241.396 208.091 240.979C207.967 240.56 207.786 240.242 207.55 240.026C207.316 239.808 207.037 239.698 206.713 239.697C206.223 239.696 205.838 239.937 205.557 240.419C205.276 240.901 205.134 241.596 205.129 242.502C205.128 243.109 205.189 243.621 205.314 244.041C205.441 244.458 205.621 244.774 205.855 244.99C206.089 245.204 206.37 245.311 206.699 245.312ZM210.62 246.149L210.622 245.353L213.089 242.809C213.353 242.533 213.57 242.291 213.741 242.083C213.914 241.873 214.044 241.673 214.13 241.484C214.215 241.295 214.258 241.093 214.259 240.88C214.259 240.639 214.203 240.43 214.09 240.255C213.977 240.077 213.822 239.941 213.626 239.845C213.429 239.748 213.208 239.699 212.962 239.698C212.702 239.698 212.474 239.75 212.28 239.856C212.085 239.962 211.936 240.112 211.831 240.306C211.727 240.5 211.674 240.727 211.673 240.988L210.626 240.985C210.627 240.543 210.73 240.156 210.934 239.825C211.138 239.494 211.418 239.238 211.774 239.056C212.129 238.872 212.533 238.781 212.985 238.782C213.442 238.783 213.845 238.875 214.192 239.058C214.542 239.239 214.815 239.486 215.011 239.799C215.206 240.11 215.304 240.46 215.303 240.851C215.302 241.121 215.251 241.385 215.148 241.642C215.048 241.9 214.874 242.188 214.624 242.504C214.375 242.818 214.028 243.2 213.585 243.649L212.136 245.158L212.135 245.211L215.41 245.219L215.407 246.16L210.62 246.149ZM219.53 238.897L219.512 246.17L218.412 246.167L218.426 239.996L218.384 239.995L216.641 241.128L216.644 240.077L218.461 238.895L219.53 238.897Z" fill="#BFBFBF"/>
<path d="M249.854 246.243L249.856 245.448L252.323 242.904C252.586 242.628 252.804 242.386 252.975 242.178C253.148 241.968 253.277 241.768 253.363 241.579C253.449 241.389 253.492 241.188 253.492 240.975C253.493 240.734 253.437 240.525 253.324 240.35C253.21 240.172 253.056 240.036 252.859 239.94C252.663 239.843 252.442 239.794 252.196 239.793C251.935 239.793 251.708 239.845 251.513 239.951C251.319 240.057 251.17 240.207 251.065 240.401C250.96 240.595 250.908 240.822 250.907 241.083L249.859 241.08C249.86 240.637 249.963 240.251 250.168 239.92C250.372 239.589 250.652 239.333 251.008 239.151C251.363 238.967 251.767 238.876 252.219 238.877C252.676 238.878 253.078 238.97 253.426 239.153C253.776 239.334 254.049 239.581 254.244 239.894C254.44 240.205 254.538 240.555 254.537 240.946C254.536 241.216 254.484 241.48 254.382 241.737C254.282 241.995 254.107 242.282 253.858 242.599C253.609 242.913 253.262 243.295 252.818 243.744L251.369 245.253L251.369 245.306L254.643 245.314L254.641 246.255L249.854 246.243ZM258.519 246.385C257.957 246.381 257.478 246.232 257.081 245.938C256.684 245.643 256.381 245.215 256.172 244.654C255.962 244.092 255.859 243.416 255.861 242.625C255.863 241.837 255.97 241.164 256.182 240.605C256.396 240.047 256.702 239.622 257.101 239.329C257.502 239.037 257.98 238.891 258.537 238.892C259.093 238.894 259.57 239.043 259.967 239.34C260.364 239.634 260.667 240.061 260.876 240.62C261.088 241.177 261.193 241.85 261.191 242.638C261.189 243.431 261.082 244.108 260.87 244.669C260.658 245.227 260.353 245.653 259.954 245.948C259.556 246.241 259.077 246.387 258.519 246.385ZM258.521 245.437C259.013 245.438 259.398 245.199 259.677 244.719C259.957 244.239 260.099 243.545 260.101 242.635C260.102 242.032 260.039 241.521 259.913 241.104C259.788 240.685 259.608 240.367 259.372 240.151C259.138 239.933 258.859 239.824 258.534 239.823C258.044 239.822 257.659 240.062 257.378 240.544C257.098 241.027 256.955 241.721 256.951 242.628C256.949 243.234 257.011 243.747 257.135 244.166C257.262 244.583 257.443 244.899 257.676 245.115C257.91 245.329 258.192 245.436 258.521 245.437ZM262.442 246.274L262.444 245.479L264.911 242.935C265.174 242.658 265.392 242.416 265.563 242.208C265.736 241.998 265.865 241.798 265.951 241.609C266.037 241.42 266.08 241.219 266.08 241.006C266.081 240.764 266.025 240.556 265.911 240.38C265.798 240.203 265.643 240.066 265.447 239.971C265.251 239.873 265.03 239.824 264.783 239.824C264.523 239.823 264.296 239.876 264.101 239.982C263.907 240.088 263.757 240.238 263.653 240.432C263.548 240.626 263.495 240.853 263.495 241.113L262.447 241.111C262.448 240.668 262.551 240.281 262.755 239.95C262.96 239.619 263.24 239.363 263.595 239.182C263.951 238.998 264.355 238.906 264.807 238.908C265.264 238.909 265.666 239.001 266.014 239.184C266.364 239.365 266.636 239.612 266.832 239.924C267.028 240.235 267.125 240.586 267.124 240.976C267.124 241.246 267.072 241.51 266.97 241.768C266.87 242.026 266.695 242.313 266.446 242.63C266.196 242.944 265.85 243.325 265.406 243.774L263.957 245.283L263.957 245.337L267.231 245.345L267.229 246.286L262.442 246.274ZM268.575 246.289L268.577 245.493L271.044 242.95C271.307 242.673 271.524 242.431 271.695 242.223C271.869 242.013 271.998 241.813 272.084 241.624C272.17 241.435 272.213 241.234 272.213 241.021C272.214 240.779 272.157 240.571 272.044 240.395C271.931 240.217 271.776 240.081 271.58 239.986C271.384 239.888 271.162 239.839 270.916 239.838C270.656 239.838 270.428 239.891 270.234 239.997C270.04 240.103 269.89 240.253 269.786 240.447C269.681 240.64 269.628 240.868 269.628 241.128L268.58 241.125C268.581 240.683 268.684 240.296 268.888 239.965C269.093 239.634 269.373 239.378 269.728 239.196C270.084 239.013 270.488 238.921 270.94 238.922C271.397 238.923 271.799 239.016 272.146 239.199C272.496 239.379 272.769 239.626 272.965 239.939C273.161 240.25 273.258 240.601 273.257 240.991C273.257 241.261 273.205 241.525 273.103 241.783C273.003 242.041 272.828 242.328 272.579 242.644C272.329 242.959 271.983 243.34 271.539 243.789L270.09 245.298L270.09 245.351L273.364 245.359L273.362 246.3L268.575 246.289Z" fill="#BFBFBF"/>
<path d="M302.676 246.371L302.677 245.576L305.145 243.032C305.408 242.756 305.625 242.514 305.796 242.306C305.97 242.096 306.099 241.896 306.185 241.707C306.27 241.517 306.313 241.316 306.314 241.103C306.315 240.862 306.258 240.653 306.145 240.478C306.032 240.3 305.877 240.163 305.681 240.068C305.485 239.971 305.263 239.922 305.017 239.921C304.757 239.92 304.529 239.973 304.335 240.079C304.141 240.185 303.991 240.335 303.886 240.529C303.782 240.723 303.729 240.95 303.729 241.211L302.681 241.208C302.682 240.765 302.785 240.379 302.989 240.048C303.194 239.717 303.473 239.46 303.829 239.279C304.185 239.095 304.588 239.004 305.041 239.005C305.498 239.006 305.9 239.098 306.247 239.281C306.597 239.462 306.87 239.709 307.066 240.022C307.262 240.333 307.359 240.683 307.358 241.074C307.357 241.344 307.306 241.608 307.204 241.865C307.103 242.123 306.929 242.41 306.679 242.727C306.43 243.041 306.084 243.423 305.64 243.871L304.191 245.381L304.191 245.434L307.465 245.442L307.462 246.383L302.676 246.371ZM311.34 246.513C310.779 246.509 310.3 246.36 309.903 246.066C309.506 245.771 309.203 245.343 308.993 244.782C308.784 244.22 308.68 243.544 308.682 242.753C308.684 241.965 308.791 241.292 309.003 240.733C309.218 240.175 309.524 239.75 309.922 239.457C310.323 239.165 310.802 239.019 311.358 239.02C311.914 239.022 312.391 239.171 312.788 239.468C313.185 239.762 313.488 240.189 313.698 240.748C313.909 241.305 314.014 241.978 314.012 242.766C314.011 243.559 313.904 244.236 313.691 244.797C313.479 245.355 313.174 245.781 312.776 246.076C312.377 246.369 311.899 246.514 311.34 246.513ZM311.342 245.565C311.835 245.566 312.22 245.327 312.498 244.847C312.779 244.367 312.92 243.672 312.922 242.763C312.924 242.16 312.861 241.649 312.734 241.232C312.61 240.813 312.429 240.495 312.193 240.279C311.959 240.061 311.68 239.951 311.356 239.951C310.866 239.949 310.481 240.19 310.2 240.672C309.919 241.155 309.777 241.849 309.772 242.756C309.771 243.362 309.832 243.875 309.957 244.294C310.084 244.711 310.264 245.027 310.498 245.243C310.732 245.457 311.013 245.564 311.342 245.565ZM315.263 246.402L315.265 245.606L317.732 243.063C317.996 242.786 318.213 242.544 318.384 242.336C318.557 242.126 318.687 241.926 318.773 241.737C318.858 241.548 318.901 241.347 318.902 241.134C318.902 240.892 318.846 240.684 318.733 240.508C318.62 240.33 318.465 240.194 318.269 240.099C318.072 240.001 317.851 239.952 317.605 239.952C317.345 239.951 317.117 240.004 316.923 240.11C316.728 240.216 316.579 240.366 316.474 240.56C316.37 240.754 316.317 240.981 316.316 241.241L315.269 241.239C315.27 240.796 315.373 240.409 315.577 240.078C315.781 239.747 316.061 239.491 316.417 239.309C316.772 239.126 317.176 239.034 317.629 239.035C318.085 239.037 318.488 239.129 318.835 239.312C319.185 239.493 319.458 239.739 319.654 240.052C319.85 240.363 319.947 240.714 319.946 241.104C319.945 241.374 319.894 241.638 319.791 241.896C319.691 242.154 319.517 242.441 319.267 242.757C319.018 243.072 318.671 243.453 318.228 243.902L316.779 245.411L316.778 245.465L320.053 245.472L320.05 246.413L315.263 246.402ZM323.928 246.522C323.44 246.521 323.005 246.436 322.622 246.267C322.241 246.098 321.94 245.864 321.718 245.565C321.498 245.264 321.381 244.916 321.365 244.52L322.48 244.523C322.494 244.739 322.566 244.926 322.696 245.085C322.828 245.241 323 245.362 323.213 245.448C323.426 245.534 323.663 245.577 323.923 245.578C324.21 245.578 324.463 245.529 324.683 245.43C324.906 245.331 325.081 245.193 325.206 245.016C325.332 244.837 325.396 244.63 325.396 244.395C325.397 244.151 325.335 243.937 325.209 243.752C325.087 243.565 324.906 243.417 324.667 243.31C324.431 243.203 324.144 243.149 323.808 243.148L323.194 243.147L323.196 242.252L323.81 242.254C324.08 242.254 324.317 242.206 324.521 242.11C324.727 242.013 324.888 241.879 325.005 241.706C325.121 241.531 325.18 241.326 325.18 241.092C325.181 240.867 325.13 240.672 325.029 240.506C324.93 240.337 324.788 240.206 324.604 240.111C324.422 240.015 324.207 239.968 323.958 239.967C323.721 239.966 323.5 240.01 323.294 240.097C323.09 240.181 322.924 240.304 322.796 240.465C322.667 240.623 322.598 240.814 322.588 241.036L321.526 241.034C321.539 240.641 321.656 240.295 321.877 239.997C322.1 239.7 322.394 239.467 322.759 239.3C323.124 239.133 323.529 239.05 323.974 239.051C324.441 239.052 324.843 239.144 325.181 239.327C325.522 239.508 325.784 239.749 325.968 240.05C326.154 240.351 326.246 240.68 326.242 241.038C326.244 241.445 326.129 241.79 325.899 242.074C325.671 242.357 325.367 242.547 324.988 242.643L324.988 242.7C325.471 242.775 325.845 242.968 326.109 243.278C326.376 243.589 326.507 243.974 326.504 244.433C326.505 244.833 326.393 245.192 326.168 245.509C325.944 245.825 325.639 246.074 325.253 246.256C324.867 246.435 324.425 246.524 323.928 246.522Z" fill="#BFBFBF"/>
<path d="M18.1001 98.0994C17.6551 98.0994 17.255 98.0142 16.8999 97.8438C16.5471 97.6709 16.2654 97.4342 16.0547 97.1335C15.844 96.8329 15.7315 96.4896 15.7173 96.1037H16.7827C16.8087 96.4162 16.9472 96.6731 17.1982 96.8743C17.4491 97.0755 17.7498 97.1761 18.1001 97.1761C18.3795 97.1761 18.6269 97.1122 18.8423 96.9844C19.0601 96.8542 19.2306 96.6754 19.3537 96.4482C19.4792 96.2209 19.5419 95.9616 19.5419 95.6705C19.5419 95.3745 19.478 95.1106 19.3501 94.8786C19.2223 94.6465 19.0459 94.4643 18.821 94.3317C18.5985 94.1991 18.3428 94.1316 18.054 94.1293C17.8338 94.1293 17.6125 94.1671 17.3899 94.2429C17.1674 94.3187 16.9875 94.4181 16.8501 94.5412L15.8452 94.392L16.2536 90.7273H20.2521V91.6683H17.1662L16.9354 93.7031H16.978C17.12 93.5658 17.3082 93.451 17.5426 93.3587C17.7794 93.2663 18.0327 93.2202 18.3026 93.2202C18.7453 93.2202 19.1394 93.3255 19.4851 93.5362C19.8331 93.7469 20.1065 94.0346 20.3054 94.3991C20.5066 94.7614 20.6061 95.178 20.6037 95.6491C20.6061 96.1203 20.4995 96.5405 20.2841 96.9098C20.071 97.2791 19.7751 97.5703 19.3963 97.7834C19.0199 97.9941 18.5878 98.0994 18.1001 98.0994Z" fill="#BFBFBF"/>
<path d="M15.5469 121.58V120.692L18.6896 115.727H19.3892V117.034H18.9453L16.6974 120.592V120.649H21.005V121.58H15.5469ZM18.995 123V121.31L19.0021 120.905V115.727H20.0426V123H18.995Z" fill="#BFBFBF"/>
<path d="M18.2315 148.099C17.7438 148.099 17.3082 148.015 16.9247 147.847C16.5436 147.679 16.2417 147.446 16.0192 147.148C15.799 146.847 15.6806 146.499 15.6641 146.104H16.7791C16.7933 146.319 16.8655 146.506 16.9957 146.665C17.1283 146.821 17.3011 146.942 17.5142 147.027C17.7273 147.112 17.964 147.155 18.2244 147.155C18.5109 147.155 18.7642 147.105 18.9844 147.006C19.2069 146.906 19.3809 146.768 19.5064 146.59C19.6319 146.41 19.6946 146.203 19.6946 145.969C19.6946 145.725 19.6319 145.511 19.5064 145.326C19.3833 145.139 19.2022 144.992 18.9631 144.886C18.7263 144.779 18.4399 144.726 18.1037 144.726H17.4893V143.831H18.1037C18.3736 143.831 18.6103 143.782 18.8139 143.685C19.0199 143.588 19.1809 143.453 19.2969 143.281C19.4129 143.105 19.4709 142.901 19.4709 142.666C19.4709 142.441 19.42 142.246 19.3182 142.08C19.2188 141.912 19.0767 141.781 18.892 141.686C18.7098 141.591 18.4943 141.544 18.2457 141.544C18.009 141.544 17.7876 141.588 17.5817 141.675C17.3781 141.761 17.2124 141.884 17.0845 142.045C16.9567 142.203 16.888 142.394 16.8786 142.616H15.8168C15.8286 142.223 15.9446 141.878 16.1648 141.58C16.3873 141.281 16.6809 141.048 17.0455 140.88C17.41 140.712 17.8149 140.628 18.2599 140.628C18.7263 140.628 19.1288 140.719 19.4673 140.901C19.8082 141.081 20.071 141.321 20.2557 141.622C20.4427 141.923 20.535 142.252 20.5327 142.609C20.535 143.017 20.4214 143.362 20.1918 143.646C19.9645 143.93 19.6615 144.121 19.2827 144.218V144.275C19.7656 144.348 20.1397 144.54 20.4048 144.85C20.6723 145.16 20.8049 145.545 20.8026 146.004C20.8049 146.404 20.6937 146.763 20.4688 147.08C20.2462 147.397 19.942 147.647 19.5561 147.83C19.1702 148.009 18.7287 148.099 18.2315 148.099Z" fill="#BFBFBF"/>
<path d="M15.6996 173V172.205L18.1605 169.655C18.4233 169.378 18.6399 169.135 18.8104 168.927C18.9832 168.716 19.1122 168.516 19.1974 168.327C19.2827 168.137 19.3253 167.936 19.3253 167.723C19.3253 167.482 19.2685 167.273 19.1548 167.098C19.0412 166.92 18.8861 166.784 18.6896 166.69C18.4931 166.593 18.2718 166.544 18.0256 166.544C17.7652 166.544 17.5379 166.597 17.3438 166.704C17.1496 166.81 17.0005 166.961 16.8963 167.155C16.7921 167.349 16.7401 167.576 16.7401 167.837H15.6925C15.6925 167.394 15.7943 167.007 15.9979 166.675C16.2015 166.344 16.4808 166.087 16.8359 165.905C17.1911 165.72 17.5947 165.628 18.0469 165.628C18.5038 165.628 18.9063 165.719 19.2543 165.901C19.6046 166.081 19.8781 166.327 20.0746 166.64C20.2711 166.95 20.3693 167.3 20.3693 167.691C20.3693 167.961 20.3184 168.225 20.2166 168.483C20.1172 168.741 19.9432 169.029 19.6946 169.346C19.446 169.661 19.1004 170.043 18.6577 170.493L17.2124 172.006V172.059H20.4865V173H15.6996Z" fill="#BFBFBF"/>
<path d="M18.4588 190.727V198H17.358V191.828H17.3153L15.5753 192.964V191.913L17.3899 190.727H18.4588Z" fill="#BFBFBF"/>
<path d="M18.2315 223.121C17.6705 223.118 17.1911 222.97 16.7933 222.677C16.3956 222.383 16.0914 221.956 15.8807 221.395C15.67 220.834 15.5646 220.158 15.5646 219.367C15.5646 218.579 15.67 217.905 15.8807 217.347C16.0938 216.788 16.3991 216.362 16.7969 216.068C17.197 215.775 17.6752 215.628 18.2315 215.628C18.7879 215.628 19.2649 215.776 19.6626 216.072C20.0604 216.365 20.3646 216.791 20.5753 217.35C20.7884 217.906 20.8949 218.579 20.8949 219.367C20.8949 220.16 20.7895 220.837 20.5788 221.398C20.3681 221.957 20.0639 222.384 19.6662 222.68C19.2685 222.974 18.7902 223.121 18.2315 223.121ZM18.2315 222.173C18.724 222.173 19.1087 221.932 19.3857 221.452C19.665 220.971 19.8047 220.276 19.8047 219.367C19.8047 218.763 19.7408 218.253 19.6129 217.837C19.4875 217.418 19.3063 217.1 19.0696 216.885C18.8352 216.667 18.5559 216.558 18.2315 216.558C17.7415 216.558 17.3568 216.8 17.0774 217.283C16.7981 217.766 16.6572 218.46 16.6548 219.367C16.6548 219.973 16.7176 220.486 16.843 220.905C16.9709 221.321 17.152 221.638 17.3864 221.853C17.6207 222.066 17.9025 222.173 18.2315 222.173Z" fill="#BFBFBF"/>
<path d="M10 178.253L2.72727 179.034L2.72727 178.139L8.65057 177.599L8.65057 177.528L2.72727 175L2.72727 174.006L8.65057 173.437L8.65057 173.366L2.72727 170.866L2.72727 169.972L10 173.168L10 174.077L4.20454 174.716L4.20454 174.773L10 177.344L10 178.253ZM10 170.082L2.72727 168.874L2.72727 166.417C2.72727 165.849 2.82315 165.399 3.01491 165.067C3.20668 164.734 3.47064 164.508 3.80682 164.389C4.14299 164.268 4.52651 164.244 4.95739 164.315C5.38352 164.386 5.76231 164.537 6.09375 164.769C6.42519 164.999 6.68561 165.311 6.875 165.707C7.06439 166.1 7.15909 166.578 7.15909 167.141L7.15909 169.13L6.36364 168.988L6.36364 167.028C6.36364 166.639 6.30682 166.317 6.19318 166.062C6.07954 165.806 5.91738 165.607 5.70668 165.465C5.49597 165.323 5.24621 165.228 4.95739 165.181C4.66382 165.134 4.40933 165.147 4.19389 165.22C3.97609 165.291 3.808 165.437 3.68963 165.657C3.56889 165.875 3.50852 166.18 3.50852 166.573L3.50852 168.121L10 169.201L10 170.082ZM6.73295 166.119L10 164.869L10 165.891L6.73295 167.113L6.73295 166.119ZM4.60227 156.001C4.21165 156.001 3.91572 156.13 3.71449 156.388C3.51089 156.646 3.40909 156.995 3.40909 157.435C3.40909 157.757 3.46117 158.047 3.56534 158.305C3.66951 158.563 3.81274 158.774 3.99503 158.937C4.17732 159.101 4.38447 159.201 4.61648 159.239C4.8106 159.27 4.97751 159.25 5.11719 159.179C5.2545 159.108 5.36932 159.007 5.46165 158.877C5.55161 158.744 5.62618 158.602 5.68537 158.451C5.74219 158.299 5.78835 158.16 5.82386 158.032L6.02273 157.322C6.07244 157.144 6.1411 156.946 6.22869 156.729C6.31629 156.511 6.43584 156.307 6.58736 156.118C6.7365 155.928 6.92827 155.784 7.16264 155.684C7.39702 155.583 7.68466 155.56 8.02557 155.617C8.41856 155.683 8.77367 155.845 9.09091 156.104C9.40814 156.359 9.66027 156.698 9.8473 157.119C10.0343 157.538 10.1278 158.027 10.1278 158.586C10.1278 159.107 10.0438 159.545 9.87571 159.9C9.70762 160.252 9.47325 160.513 9.17258 160.681C8.87192 160.847 8.52273 160.911 8.125 160.873L8.125 159.964C8.39962 159.987 8.62689 159.933 8.80682 159.8C8.98437 159.668 9.11695 159.483 9.20454 159.246C9.28977 159.01 9.33239 158.747 9.33239 158.458C9.33239 158.122 9.27793 157.812 9.16903 157.528C9.05776 157.241 8.90388 157.004 8.70739 156.817C8.50852 156.628 8.27651 156.512 8.01136 156.469C7.76989 156.427 7.57339 156.46 7.42187 156.569C7.27036 156.678 7.14725 156.835 7.05256 157.041C6.95786 157.247 6.875 157.473 6.80398 157.719L6.54829 158.572C6.38494 159.111 6.15175 159.522 5.84872 159.804C5.54569 160.083 5.14915 160.184 4.65909 160.106C4.25189 160.035 3.89678 159.863 3.59375 159.591C3.28835 159.318 3.05161 158.981 2.88352 158.579C2.71307 158.176 2.62784 157.743 2.62784 157.279C2.62784 156.81 2.71307 156.409 2.88352 156.075C3.05161 155.741 3.2848 155.493 3.5831 155.329C3.87902 155.166 4.21875 155.106 4.60227 155.148L4.60227 156.001ZM10.1136 152.408C10.1136 152.921 9.9929 153.343 9.75142 153.672C9.50994 153.999 9.17732 154.226 8.75355 154.354C8.32978 154.482 7.84564 154.5 7.30114 154.411C6.74716 154.321 6.25828 154.138 5.83452 153.864C5.40838 153.589 5.07576 153.247 4.83665 152.837C4.59517 152.428 4.47443 151.977 4.47443 151.484C4.47443 151.101 4.54545 150.767 4.6875 150.483C4.82954 150.199 5.02841 149.98 5.28409 149.826C5.53977 149.672 5.83807 149.6 6.17898 149.609L6.17898 150.447C5.9304 150.471 5.71023 150.578 5.51846 150.767C5.32434 150.954 5.22727 151.231 5.22727 151.598C5.22727 151.925 5.3125 152.225 5.48295 152.5C5.65104 152.775 5.88897 153.005 6.19673 153.192C6.50213 153.379 6.86079 153.506 7.27273 153.572C7.69413 153.643 8.06108 153.638 8.37358 153.555C8.68608 153.472 8.92874 153.321 9.10156 153.104C9.27438 152.886 9.36079 152.611 9.36079 152.28C9.36079 152.062 9.32292 151.858 9.24716 151.669C9.1714 151.48 9.0625 151.312 8.92045 151.165C8.77841 151.018 8.60795 150.902 8.40909 150.817L8.40909 149.979C8.73106 150.083 9.02107 150.25 9.27912 150.479C9.5348 150.709 9.7384 150.987 9.88991 151.314C10.0391 151.641 10.1136 152.005 10.1136 152.408ZM10.1136 146.772C10.1136 147.274 9.99408 147.694 9.75497 148.033C9.51586 148.371 9.18087 148.61 8.75 148.75C8.31913 148.887 7.81723 148.91 7.24432 148.817C6.6856 148.728 6.1991 148.549 5.7848 148.281C5.36813 148.011 5.04616 147.676 4.81889 147.276C4.58925 146.874 4.47443 146.431 4.47443 145.948C4.47443 145.446 4.59517 145.027 4.83665 144.691C5.07576 144.353 5.41193 144.113 5.84517 143.974C6.27604 143.834 6.7803 143.81 7.35795 143.903C7.91193 143.993 8.39607 144.174 8.81037 144.446C9.2223 144.716 9.54309 145.051 9.77273 145.451C10 145.849 10.1136 146.289 10.1136 146.772ZM9.36079 146.758C9.36079 146.374 9.26255 146.042 9.06605 145.76C8.86955 145.476 8.61032 145.246 8.28835 145.071C7.96638 144.893 7.61837 144.774 7.24432 144.712C6.8892 144.656 6.55895 144.658 6.25355 144.719C5.94578 144.781 5.69839 144.912 5.51136 145.114C5.32197 145.315 5.22727 145.598 5.22727 145.962C5.22727 146.346 5.3267 146.681 5.52557 146.967C5.72443 147.251 5.98603 147.481 6.31037 147.656C6.6347 147.831 6.9839 147.949 7.35795 148.008C7.71307 148.065 8.04332 148.063 8.34872 148.004C8.65175 147.943 8.89678 147.811 9.08381 147.61C9.26846 147.406 9.36079 147.122 9.36079 146.758ZM10 143.057L4.54545 142.148L4.54545 141.338L5.36932 141.48L5.36932 141.423C5.09943 141.281 4.88044 141.064 4.71236 140.773C4.54427 140.482 4.46023 140.173 4.46023 139.846C4.46023 139.782 4.46141 139.706 4.46378 139.616C4.46378 139.526 4.46733 139.456 4.47443 139.406L5.3267 139.548C5.3196 139.577 5.30895 139.64 5.29474 139.74C5.27817 139.839 5.26988 139.946 5.26988 140.059C5.26988 140.325 5.32552 140.57 5.43679 140.795C5.54569 141.019 5.6972 141.208 5.89133 141.359C6.08309 141.511 6.30208 141.608 6.54829 141.65L10 142.219L10 143.057ZM10.1136 137.21C10.1136 137.733 9.99763 138.165 9.76562 138.506C9.53125 138.847 9.20454 139.085 8.78551 139.22C8.36411 139.355 7.87405 139.376 7.31534 139.284C6.75663 139.191 6.2642 139.008 5.83807 138.733C5.40956 138.459 5.07576 138.116 4.83665 137.707C4.59517 137.297 4.47443 136.847 4.47443 136.357C4.47443 136.073 4.52178 135.8 4.61647 135.537C4.71117 135.274 4.86505 135.047 5.07812 134.855C5.28882 134.664 5.56818 134.53 5.91619 134.454C6.2642 134.378 6.69271 134.383 7.2017 134.468L7.55682 134.525L7.55682 138.73L6.83238 138.616L6.83238 135.264C6.52462 135.209 6.25 135.223 6.00852 135.306C5.76704 135.387 5.57647 135.528 5.43679 135.729C5.29711 135.928 5.22727 136.18 5.22727 136.485C5.22727 136.8 5.3125 137.094 5.48295 137.366C5.65104 137.638 5.86411 137.865 6.12216 138.048C6.37784 138.23 6.63826 138.344 6.90341 138.389L7.52841 138.488C7.98059 138.559 8.34043 138.548 8.60795 138.456C8.87547 138.361 9.06842 138.197 9.18679 137.963C9.30279 137.728 9.36079 137.435 9.36079 137.082C9.36079 136.857 9.33002 136.65 9.26846 136.46C9.20454 136.271 9.10985 136.102 8.98437 135.953C8.85653 135.803 8.69791 135.678 8.50852 135.576L8.73579 134.809C9.01041 134.939 9.25189 135.123 9.46023 135.36C9.66619 135.594 9.82718 135.869 9.94318 136.183C10.0568 136.496 10.1136 136.838 10.1136 137.21Z" fill="#DCDCDC"/>
<rect y="264.433" width="328" height="44" rx="12" fill="url(#paint2_linear_2301_6689)"/>
<path d="M102.82 291.433L99.9964 281.251H101.612L103.596 289.136H103.69L105.753 281.251H107.354L109.418 289.141H109.512L111.491 281.251H113.111L110.283 291.433H108.736L106.594 283.806H106.514L104.371 291.433H102.82ZM116.932 291.587C116.18 291.587 115.532 291.426 114.988 291.104C114.448 290.78 114.03 290.324 113.735 289.737C113.444 289.147 113.298 288.456 113.298 287.664C113.298 286.882 113.444 286.193 113.735 285.596C114.03 284.999 114.441 284.534 114.968 284.199C115.499 283.864 116.118 283.697 116.828 283.697C117.259 283.697 117.676 283.768 118.081 283.911C118.485 284.053 118.848 284.277 119.169 284.582C119.491 284.887 119.744 285.283 119.93 285.77C120.116 286.254 120.208 286.842 120.208 287.535V288.062H114.138V286.948H118.752C118.752 286.557 118.672 286.211 118.513 285.909C118.354 285.604 118.13 285.364 117.842 285.188C117.557 285.013 117.222 284.925 116.838 284.925C116.42 284.925 116.055 285.028 115.744 285.233C115.436 285.435 115.197 285.7 115.028 286.028C114.862 286.353 114.779 286.706 114.779 287.087V287.957C114.779 288.468 114.869 288.902 115.048 289.26C115.23 289.618 115.484 289.891 115.809 290.08C116.133 290.266 116.513 290.359 116.947 290.359C117.229 290.359 117.486 290.319 117.718 290.239C117.95 290.157 118.15 290.034 118.319 289.872C118.488 289.709 118.617 289.509 118.707 289.27L120.114 289.524C120.001 289.938 119.799 290.301 119.507 290.612C119.219 290.921 118.856 291.161 118.419 291.333C117.984 291.502 117.489 291.587 116.932 291.587ZM123.344 281.251V291.433H121.858V281.251H123.344ZM126.831 281.251V291.433H125.344V281.251H126.831ZM135.498 291.577C134.816 291.577 134.227 291.453 133.734 291.204C133.243 290.955 132.865 290.617 132.6 290.19C132.335 289.759 132.202 289.272 132.202 288.728C132.202 288.314 132.289 287.946 132.461 287.624C132.633 287.3 132.873 287 133.182 286.725C133.49 286.449 133.846 286.173 134.251 285.894L135.891 284.736C136.17 284.554 136.387 284.361 136.543 284.159C136.698 283.954 136.776 283.7 136.776 283.399C136.776 283.16 136.673 282.931 136.468 282.712C136.262 282.494 135.987 282.384 135.643 282.384C135.404 282.384 135.194 282.442 135.011 282.558C134.832 282.674 134.691 282.823 134.589 283.006C134.489 283.185 134.44 283.374 134.44 283.573C134.44 283.805 134.503 284.038 134.628 284.274C134.758 284.509 134.923 284.752 135.126 285.004C135.328 285.253 135.54 285.511 135.762 285.78L140.49 291.433H138.81L134.897 286.834C134.569 286.446 134.264 286.082 133.982 285.74C133.7 285.395 133.472 285.047 133.296 284.696C133.124 284.341 133.038 283.959 133.038 283.548C133.038 283.08 133.144 282.666 133.356 282.305C133.571 281.94 133.871 281.655 134.256 281.45C134.64 281.244 135.091 281.141 135.608 281.141C136.132 281.141 136.581 281.244 136.955 281.45C137.333 281.652 137.623 281.922 137.825 282.26C138.031 282.595 138.133 282.961 138.133 283.359C138.133 283.843 138.012 284.27 137.771 284.641C137.532 285.009 137.202 285.347 136.781 285.656L134.738 287.162C134.34 287.454 134.063 287.742 133.908 288.027C133.755 288.309 133.679 288.529 133.679 288.688C133.679 288.98 133.753 289.25 133.903 289.499C134.055 289.747 134.267 289.946 134.539 290.095C134.814 290.244 135.136 290.319 135.503 290.319C135.881 290.319 136.249 290.238 136.607 290.075C136.968 289.91 137.295 289.673 137.587 289.364C137.882 289.056 138.115 288.687 138.288 288.256C138.46 287.825 138.546 287.343 138.546 286.809H139.888C139.888 287.465 139.814 288.02 139.665 288.475C139.516 288.925 139.335 289.293 139.123 289.578C138.914 289.86 138.717 290.08 138.531 290.239C138.472 290.292 138.415 290.345 138.362 290.399C138.309 290.452 138.253 290.505 138.193 290.558C137.848 290.906 137.431 291.162 136.94 291.328C136.453 291.494 135.972 291.577 135.498 291.577ZM153.697 281.251V291.433H152.285L147.11 283.965H147.015V291.433H145.479V281.251H146.901L152.081 288.728H152.176V281.251H153.697ZM159.035 291.587C158.319 291.587 157.695 291.423 157.161 291.095C156.627 290.766 156.213 290.307 155.918 289.717C155.623 289.127 155.476 288.438 155.476 287.649C155.476 286.857 155.623 286.164 155.918 285.571C156.213 284.978 156.627 284.517 157.161 284.189C157.695 283.861 158.319 283.697 159.035 283.697C159.751 283.697 160.376 283.861 160.91 284.189C161.443 284.517 161.857 284.978 162.152 285.571C162.447 286.164 162.595 286.857 162.595 287.649C162.595 288.438 162.447 289.127 162.152 289.717C161.857 290.307 161.443 290.766 160.91 291.095C160.376 291.423 159.751 291.587 159.035 291.587ZM159.04 290.339C159.504 290.339 159.889 290.216 160.194 289.971C160.499 289.726 160.724 289.399 160.87 288.992C161.019 288.584 161.093 288.135 161.093 287.644C161.093 287.157 161.019 286.71 160.87 286.302C160.724 285.891 160.499 285.561 160.194 285.313C159.889 285.064 159.504 284.94 159.04 284.94C158.573 284.94 158.185 285.064 157.877 285.313C157.572 285.561 157.345 285.891 157.196 286.302C157.05 286.71 156.977 287.157 156.977 287.644C156.977 288.135 157.05 288.584 157.196 288.992C157.345 289.399 157.572 289.726 157.877 289.971C158.185 290.216 158.573 290.339 159.04 290.339ZM167.819 283.796V284.989H163.648V283.796H167.819ZM164.766 281.967H166.253V289.19C166.253 289.479 166.296 289.696 166.382 289.842C166.468 289.984 166.579 290.082 166.715 290.135C166.854 290.185 167.005 290.21 167.168 290.21C167.287 290.21 167.391 290.201 167.481 290.185C167.57 290.168 167.64 290.155 167.69 290.145L167.958 291.373C167.872 291.406 167.749 291.439 167.59 291.472C167.431 291.509 167.232 291.529 166.994 291.532C166.602 291.539 166.238 291.469 165.9 291.323C165.562 291.177 165.288 290.952 165.079 290.647C164.871 290.342 164.766 289.959 164.766 289.499V281.967ZM175.281 291.433L172.457 281.251H174.073L176.057 289.136H176.151L178.214 281.251H179.815L181.878 289.141H181.973L183.952 281.251H185.572L182.744 291.433H181.197L179.055 283.806H178.975L176.832 291.433H175.281ZM189.393 291.587C188.641 291.587 187.993 291.426 187.449 291.104C186.909 290.78 186.491 290.324 186.196 289.737C185.905 289.147 185.759 288.456 185.759 287.664C185.759 286.882 185.905 286.193 186.196 285.596C186.491 284.999 186.902 284.534 187.429 284.199C187.96 283.864 188.579 283.697 189.289 283.697C189.719 283.697 190.137 283.768 190.541 283.911C190.946 284.053 191.309 284.277 191.63 284.582C191.952 284.887 192.205 285.283 192.391 285.77C192.576 286.254 192.669 286.842 192.669 287.535V288.062H186.599V286.948H191.213C191.213 286.557 191.133 286.211 190.974 285.909C190.815 285.604 190.591 285.364 190.303 285.188C190.018 285.013 189.683 284.925 189.299 284.925C188.881 284.925 188.516 285.028 188.205 285.233C187.897 285.435 187.658 285.7 187.489 286.028C187.323 286.353 187.24 286.706 187.24 287.087V287.957C187.24 288.468 187.33 288.902 187.509 289.26C187.691 289.618 187.945 289.891 188.269 290.08C188.594 290.266 188.974 290.359 189.408 290.359C189.69 290.359 189.947 290.319 190.179 290.239C190.411 290.157 190.611 290.034 190.78 289.872C190.949 289.709 191.078 289.509 191.168 289.27L192.575 289.524C192.462 289.938 192.26 290.301 191.968 290.612C191.68 290.921 191.317 291.161 190.88 291.333C190.445 291.502 189.95 291.587 189.393 291.587ZM195.805 281.251V291.433H194.319V281.251H195.805ZM199.291 281.251V291.433H197.805V281.251H199.291Z" fill="white"/>
<path d="M213.5 286.766H223.5M223.5 286.766L219 282.266M223.5 286.766L219 291.266" stroke="white" stroke-width="1.66667"/>
<defs>
<linearGradient id="paint0_linear_2301_6689" x1="-19.5712" y1="27.3403" x2="-11.4605" y2="95.9904" gradientUnits="userSpaceOnUse">
<stop stop-color="#66BB6A"/>
<stop offset="1" stop-color="#1B5E20"/>
</linearGradient>
<linearGradient id="paint1_linear_2301_6689" x1="180" y1="90" x2="180" y2="222" gradientUnits="userSpaceOnUse">
<stop stop-color="#2DC57B" stop-opacity="0.32"/>
<stop offset="1" stop-color="#2DC57B" stop-opacity="0"/>
</linearGradient>
<linearGradient id="paint2_linear_2301_6689" x1="-66.1789" y1="246.22" x2="-61.8646" y2="338.83" gradientUnits="userSpaceOnUse">
<stop stop-color="#66BB6A"/>
<stop offset="1" stop-color="#1B5E20"/>
</linearGradient>
</defs>
</svg>
