<svg width="120" height="120" viewBox="0 0 120 120" fill="none" xmlns="http://www.w3.org/2000/svg">
<g clip-path="url(#clip0_2735_8437)">
<mask id="mask0_2735_8437" style="mask-type:luminance" maskUnits="userSpaceOnUse" x="0" y="0" width="120" height="120">
<path d="M0 0H120V120H0V0Z" fill="white"/>
</mask>
<g mask="url(#mask0_2735_8437)">
<path d="M120 0H0V120H120V0Z" fill="white"/>
<path d="M43.636 7.27295H40V10.9099H43.636V7.27295ZM47.273 7.27295H43.636V10.9099H47.273V7.27295Z" fill="black"/>
<path d="M50.91 7.27295H47.273V10.9099H50.909L50.91 7.27295ZM58.182 7.27295H54.545V10.9099H58.182V7.27295ZM69.09 7.27295H65.454V10.9099H69.091V7.27295H69.09ZM72.727 7.27295H69.091V10.9099H72.727V7.27295ZM76.364 7.27295H72.727V10.9099H76.364V7.27295ZM80 7.27295H76.364V10.9099H80V7.27295ZM83.636 7.27295H80V10.9099H83.636V7.27295Z" fill="black"/>
<path d="M47.273 10.906H43.636V14.543H47.273V10.906Z" fill="black"/>
<path d="M50.91 10.906H47.273V14.543H50.909L50.91 10.906ZM54.545 10.906H50.91L50.909 14.543H54.546V10.906H54.545Z" fill="black"/>
<path d="M58.182 10.906H54.545V14.543H58.182V10.906Z" fill="black"/>
<path d="M61.818 10.906H58.182V14.543H61.818V10.906Z" fill="black"/>
<path d="M65.454 10.906H61.818V14.543H65.454V10.906ZM76.364 10.906H72.727V14.543H76.364V10.906ZM83.636 10.906H80V14.543H83.636V10.906ZM50.91 14.547H47.273V18.183H50.909L50.91 14.547ZM58.182 14.547H54.545V18.183H58.182V14.547ZM69.09 14.547H65.454V18.183H69.091V14.547H69.09ZM72.727 14.547H69.091V18.183H72.727V14.547ZM76.364 14.547H72.727V18.183H76.364V14.547ZM83.636 14.547H80V18.183H83.636V14.547Z" fill="black"/>
<path d="M47.273 18.1799H43.636V21.8159H47.273V18.1799ZM58.182 18.1799H54.545V21.8159H58.182V18.1799Z" fill="black"/>
<path d="M61.818 18.1799H58.182V21.8159H61.818V18.1799Z" fill="black"/>
<path d="M65.454 18.1799H61.818V21.8159H65.454V18.1799ZM76.364 18.1799H72.727V21.8159H76.364V18.1799ZM80 18.1799H76.364V21.8159H80V18.1799ZM47.273 21.8199H43.636V25.4569H47.273V21.8199ZM58.182 21.8199H54.545V25.4569H58.182V21.8199Z" fill="black"/>
<path d="M61.818 21.8201H58.182V25.4571H61.818V21.8201ZM69.09 21.8201H65.454V25.4571H69.091V21.8201H69.09ZM72.727 21.8201H69.091V25.4571H72.727V21.8201ZM76.364 21.8201H72.727V25.4571H76.364V21.8201ZM40 25.4531H36.364V29.0901H40V25.4531ZM47.273 25.4531H43.636V29.0901H47.273V25.4531Z" fill="black"/>
<path d="M50.91 25.4529H47.273V29.0899H50.909L50.91 25.4529ZM54.545 25.4529H50.91L50.909 29.0899H54.546V25.4529H54.545Z" fill="black"/>
<path d="M58.182 25.4529H54.545V29.0899H58.182V25.4529Z" fill="black"/>
<path d="M61.818 25.4529H58.182V29.0899H61.818V25.4529ZM76.364 25.4529H72.727V29.0899H76.364V25.4529ZM80 25.4529H76.364V29.0899H80V25.4529ZM40 29.0939H36.364V32.7299H40V29.0939ZM47.273 29.0939H43.636V32.7299H47.273V29.0939ZM54.545 29.0939H50.91V32.7299H54.546V29.0939H54.545ZM61.818 29.0939H58.182V32.7299H61.818V29.0939ZM69.09 29.0939H65.454V32.7299H69.091V29.0939H69.09ZM76.364 29.0939H72.727V32.7299H76.364V29.0939ZM83.636 29.0939H80V32.7299H83.636V29.0939Z" fill="black"/>
<path d="M47.273 32.7271H43.636V36.363H47.273V32.7271ZM61.818 32.7271H58.182V36.363H61.818V32.7271ZM72.727 32.7271H69.091V36.363H72.727V32.7271ZM80 32.7271H76.364V36.363H80V32.7271ZM83.636 32.7271H80V36.363H83.636V32.7271ZM10.91 36.3671H7.272V40.0041H10.908V36.3671H10.91ZM21.818 36.3671H18.182V40.0041H21.818V36.3671ZM29.09 36.3671H25.454V40.0041H29.091L29.09 36.3671Z" fill="black"/>
<path d="M32.727 36.3669H29.091V40.0039H32.727V36.3669ZM40 36.3669H36.364V40.0039H40V36.3669ZM43.636 36.3669H40V40.0039H43.636V36.3669ZM65.454 36.3669H61.818V40.0039H65.454V36.3669ZM87.273 36.3669H83.636V40.0039H87.273V36.3669ZM94.545 36.3669H90.91V40.0039H94.546V36.3669H94.545ZM14.545 39.9999H10.91V43.6359H14.546L14.545 39.9999ZM21.818 39.9999H18.182V43.6359H21.818V39.9999ZM25.454 39.9999H21.818V43.6359H25.454V39.9999ZM36.364 39.9999H32.727V43.6359H36.364V39.9999ZM47.273 39.9999H43.636V43.6359H47.273V39.9999Z" fill="black"/>
<path d="M61.818 40H58.182V43.636H61.818V40Z" fill="black"/>
<path d="M65.454 40H61.818V43.636H65.454V40ZM83.636 40H80V43.636H83.636V40ZM87.273 40H83.636V43.636H87.273V40ZM90.91 40H87.273V43.636H90.909V40H90.91ZM101.818 40H98.182V43.636H101.818V40ZM112.727 40H109.091V43.636H112.727V40ZM10.91 43.64H7.272V47.277H10.908V43.641L10.91 43.64ZM14.545 43.64H10.91V47.277H14.546V43.641L14.545 43.64Z" fill="black"/>
<path d="M18.182 43.6399H14.545V47.2769H18.182V43.6399ZM21.818 43.6399H18.182V47.2769H21.818V43.6399ZM25.454 43.6399H21.818V47.2769H25.454V43.6399ZM29.09 43.6399H25.454V47.2769H29.091V43.6409L29.09 43.6399Z" fill="black"/>
<path d="M32.727 43.6399H29.091V47.2769H32.727V43.6399ZM50.91 43.6399H47.273V47.2769H50.909V43.6409L50.91 43.6399ZM69.09 43.6399H65.454V47.2769H69.091V43.6409L69.09 43.6399ZM76.364 43.6399H72.727V47.2769H76.364V43.6399ZM80 43.6399H76.364V47.2769H80V43.6399ZM87.273 43.6399H83.636V47.2769H87.273V43.6399ZM101.818 43.6399H98.182V47.2769H101.818V43.6399ZM105.455 43.6399H101.818V47.2769H105.455V43.6399ZM109.091 43.6399H105.455V47.2769H109.091V43.6399ZM10.91 47.2729H7.272V50.9099H10.908V47.2729H10.91ZM14.545 47.2729H10.91V50.9099H14.546L14.545 47.2729ZM21.818 47.2729H18.182V50.9099H21.818V47.2729Z" fill="black"/>
<path d="M29.09 47.2729H25.454V50.91H29.091L29.09 47.2729ZM36.364 47.2729H32.727V50.91H36.364V47.2729ZM43.636 47.2729H40V50.91H43.636V47.2729ZM50.91 47.2729H47.273V50.91H50.909L50.91 47.2729ZM61.818 47.2729H58.182V50.91H61.818V47.2729Z" fill="black"/>
<path d="M65.454 47.2729H61.818V50.91H65.454V47.2729ZM76.364 47.2729H72.727V50.91H76.364V47.2729ZM80 47.2729H76.364V50.91H80V47.2729ZM83.636 47.2729H80V50.91H83.636V47.2729ZM105.455 47.2729H101.818V50.91H105.455V47.2729ZM109.091 47.2729H105.455V50.91H109.091V47.2729ZM10.91 50.9059H7.272V54.5429H10.908V50.9059H10.91ZM14.545 50.9059H10.91V54.5429H14.546L14.545 50.9059ZM32.727 50.9059H29.091V54.5429H32.727V50.9059ZM40 50.9059H36.364V54.5429H40V50.9059ZM54.545 50.9059H50.91V54.5429H54.546V50.9059H54.545ZM69.09 50.9059H65.454V54.5429H69.091V50.9059H69.09ZM72.727 50.9059H69.091V54.5429H72.727V50.9059Z" fill="black"/>
<path d="M83.636 50.906H80V54.543H83.636V50.906ZM87.273 50.906H83.636V54.543H87.273V50.906ZM90.91 50.906H87.273V54.543H90.909V50.906H90.91ZM94.545 50.906H90.91V54.543H94.546L94.545 50.906ZM101.818 50.906H98.182V54.543H101.818V50.906ZM109.091 50.906H105.455V54.543H109.091V50.906ZM112.727 50.906H109.091V54.543H112.727V50.906ZM18.182 54.547H14.545V58.183H18.182V54.547ZM25.454 54.547H21.818V58.183H25.454V54.547ZM40 54.547H36.364V58.183H40V54.547ZM47.273 54.547H43.636V58.183H47.273V54.547ZM65.454 54.547H61.818V58.183H65.454V54.547ZM80 54.547H76.364V58.183H80V54.547ZM83.636 54.547H80V58.183H83.636V54.547ZM10.91 58.18H7.272V61.816H10.908V58.18H10.91Z" fill="black"/>
<path d="M14.545 58.1799H10.91V61.8159H14.546L14.545 58.1799Z" fill="black"/>
<path d="M18.182 58.1799H14.545V61.8159H18.182V58.1799ZM21.818 58.1799H18.182V61.8159H21.818V58.1799ZM32.727 58.1799H29.091V61.8159H32.727V58.1799ZM36.364 58.1799H32.727V61.8159H36.364V58.1799ZM40 58.1799H36.364V61.8159H40V58.1799ZM47.273 58.1799H43.636V61.8159H47.273V58.1799ZM54.545 58.1799H50.91V61.8159H54.546L54.545 58.1799ZM65.454 58.1799H61.818V61.8159H65.454V58.1799ZM69.09 58.1799H65.454V61.8159H69.091V58.1799H69.09ZM87.273 58.1799H83.636V61.8159H87.273V58.1799ZM90.91 58.1799H87.273V61.8159H90.909V58.1799H90.91ZM98.182 58.1799H94.545V61.8159H98.182V58.1799ZM101.818 58.1799H98.182V61.8159H101.818V58.1799ZM105.455 58.1799H101.818V61.8159H105.455V58.1799ZM109.091 58.1799H105.455V61.8159H109.091V58.1799ZM112.727 58.1799H109.091V61.8159H112.727V58.1799ZM21.818 61.8199H18.182V65.4569H21.818V61.8199ZM36.364 61.8199H32.727V65.4569H36.364V61.8199ZM40 61.8199H36.364V65.4569H40V61.8199ZM43.636 61.8199H40V65.4569H43.636V61.8199ZM54.545 61.8199H50.91V65.4569H54.546L54.545 61.8199Z" fill="black"/>
<path d="M58.182 61.8201H54.545V65.4571H58.182V61.8201Z" fill="black"/>
<path d="M61.818 61.8201H58.182V65.4571H61.818V61.8201ZM69.09 61.8201H65.454V65.4571H69.091V61.8201H69.09ZM72.727 61.8201H69.091V65.4571H72.727V61.8201ZM80 61.8201H76.364V65.4571H80V61.8201ZM87.273 61.8201H83.636V65.4571H87.273V61.8201ZM90.91 61.8201H87.273V65.4571H90.909V61.8201H90.91ZM101.818 61.8201H98.182V65.4571H101.818V61.8201ZM109.091 61.8201H105.455V65.4571H109.091V61.8201ZM10.91 65.4531H7.272V69.0891H10.908V65.4531H10.91ZM14.545 65.4531H10.91V69.0891H14.546L14.545 65.4531Z" fill="black"/>
<path d="M18.182 65.4531H14.545V69.0891H18.182V65.4531ZM21.818 65.4531H18.182V69.0891H21.818V65.4531ZM25.454 65.4531H21.818V69.0891H25.454V65.4531ZM32.727 65.4531H29.091V69.0891H32.727V65.4531ZM36.364 65.4531H32.727V69.0891H36.364V65.4531ZM47.273 65.4531H43.636V69.0891H47.273V65.4531ZM58.182 65.4531H54.545V69.0891H58.182V65.4531Z" fill="black"/>
<path d="M61.818 65.4531H58.182V69.0891H61.818V65.4531Z" fill="black"/>
<path d="M65.454 65.4531H61.818V69.0891H65.454V65.4531ZM72.727 65.4531H69.091V69.0891H72.727V65.4531ZM80 65.4531H76.364V69.0891H80V65.4531ZM87.273 65.4531H83.636V69.0891H87.273V65.4531ZM94.545 65.4531H90.91V69.0891H94.546L94.545 65.4531ZM109.091 65.4531H105.455V69.0891H109.091V65.4531ZM14.545 69.0941H10.91V72.7301H14.546L14.545 69.0941ZM21.818 69.0941H18.182V72.7301H21.818V69.0941ZM25.454 69.0941H21.818V72.7301H25.454V69.0941ZM29.09 69.0941H25.454V72.7301H29.091L29.09 69.0941ZM40 69.0941H36.364V72.7301H40V69.0941ZM43.636 69.0941H40V72.7301H43.636V69.0941ZM47.273 69.0941H43.636V72.7301H47.273V69.0941ZM65.454 69.0941H61.818V72.7301H65.454V69.0941ZM72.727 69.0941H69.091V72.7301H72.727V69.0941ZM87.273 69.0941H83.636V72.7301H87.273V69.0941ZM90.91 69.0941H87.273V72.7301H90.909V69.0941H90.91ZM94.545 69.0941H90.91V72.7301H94.546L94.545 69.0941ZM101.818 69.0941H98.182V72.7301H101.818V69.0941ZM112.727 69.0941H109.091V72.7301H112.727V69.0941ZM10.91 72.7271H7.272V76.3631H10.908V72.7271H10.91Z" fill="black"/>
<path d="M18.182 72.7271H14.545V76.3631H18.182V72.7271ZM32.727 72.7271H29.091V76.3631H32.727V72.7271ZM47.273 72.7271H43.636V76.3631H47.273V72.7271Z" fill="black"/>
<path d="M50.91 72.7271H47.273V76.3631H50.909L50.91 72.7271ZM54.545 72.7271H50.91L50.909 76.3631H54.546V72.7271H54.545Z" fill="black"/>
<path d="M58.182 72.7271H54.545V76.3631H58.182V72.7271ZM69.09 72.7271H65.454V76.3631H69.091V72.7271H69.09ZM72.727 72.7271H69.091V76.3631H72.727V72.7271ZM76.364 72.7271H72.727V76.3631H76.364V72.7271ZM83.636 72.7271H80V76.3631H83.636V72.7271ZM90.91 72.7271H87.273V76.3631H90.909V72.7271H90.91ZM98.182 72.7271H94.545V76.3631H98.182V72.7271ZM109.091 72.7271H105.455V76.3631H109.091V72.7271ZM112.727 72.7271H109.091V76.3631H112.727V72.7271ZM18.182 76.3671H14.545V80.0041H18.182V76.3671ZM25.454 76.3671H21.818V80.0041H25.454V76.3671ZM29.09 76.3671H25.454V80.0041H29.091L29.09 76.3671ZM36.364 76.3671H32.727V80.0041H36.364V76.3671ZM54.545 76.3671H50.91V80.0041H54.546L54.545 76.3671Z" fill="black"/>
<path d="M58.182 76.3669H54.545V80.0039H58.182V76.3669ZM65.454 76.3669H61.818V80.0039H65.454V76.3669ZM72.727 76.3669H69.091V80.0039H72.727V76.3669ZM76.364 76.3669H72.727V80.0039H76.364V76.3669ZM80 76.3669H76.364V80.0039H80V76.3669ZM83.636 76.3669H80V80.0039H83.636V76.3669ZM90.91 76.3669H87.273V80.0039H90.909V76.3669H90.91ZM109.091 76.3669H105.455V80.0039H109.091V76.3669ZM112.727 76.3669H109.091V80.0039H112.727V76.3669ZM10.91 79.9999H7.272V83.6359H10.908V79.9999H10.91ZM21.818 79.9999H18.182V83.6359H21.818V79.9999ZM25.454 79.9999H21.818V83.6359H25.454V79.9999ZM29.09 79.9999H25.454V83.6359H29.091L29.09 79.9999Z" fill="black"/>
<path d="M32.727 80H29.091V83.636H32.727V80ZM36.364 80H32.727V83.636H36.364V80ZM43.636 80H40V83.636H43.636V80ZM50.91 80H47.273V83.636H50.909L50.91 80ZM61.818 80H58.182V83.636H61.818V80ZM69.09 80H65.454V83.636H69.091V80H69.09ZM76.364 80H72.727V83.636H76.364V80ZM80 80H76.364V83.636H80V80ZM83.636 80H80V83.636H83.636V80ZM87.273 80H83.636V83.636H87.273V80ZM90.91 80H87.273V83.636H90.909V80H90.91ZM94.545 80H90.91V83.636H94.546V80H94.545Z" fill="black"/>
<path d="M98.182 80H94.545V83.636H98.182V80ZM105.455 80H101.818V83.636H105.455V80ZM40 83.64H36.364V87.277H40V83.64ZM43.636 83.64H40V87.277H43.636V83.64ZM58.182 83.64H54.545V87.277H58.182V83.64ZM69.09 83.64H65.454V87.277H69.091V83.641L69.09 83.64ZM80 83.64H76.364V87.277H80V83.64ZM83.636 83.64H80V87.277H83.636V83.64ZM98.182 83.64H94.545V87.277H98.182V83.64ZM105.455 83.64H101.818V87.277H105.455V83.64ZM109.091 83.64H105.455V87.277H109.091V83.64ZM112.727 83.64H109.091V87.277H112.727V83.64Z" fill="black"/>
<path d="M43.636 87.2729H40V90.91H43.636V87.2729ZM54.545 87.2729H50.91V90.91H54.546V87.2729H54.545Z" fill="black"/>
<path d="M58.182 87.2729H54.545V90.91H58.182V87.2729Z" fill="black"/>
<path d="M61.818 87.2729H58.182V90.91H61.818V87.2729ZM72.727 87.2729H69.091V90.91H72.727V87.2729ZM83.636 87.2729H80V90.91H83.636V87.2729ZM90.91 87.2729H87.273V90.91H90.909V87.2729H90.91ZM98.182 87.2729H94.545V90.91H98.182V87.2729ZM109.091 87.2729H105.455V90.91H109.091V87.2729ZM40 90.9059H36.364V94.5429H40V90.9059ZM47.273 90.9059H43.636V94.5429H47.273V90.9059Z" fill="black"/>
<path d="M58.182 90.906H54.545V94.543H58.182V90.906ZM65.454 90.906H61.818V94.543H65.454V90.906ZM69.09 90.906H65.454V94.543H69.091V90.906H69.09ZM76.364 90.906H72.727V94.543H76.364V90.906ZM80 90.906H76.364V94.543H80V90.906ZM83.636 90.906H80V94.543H83.636V90.906ZM98.182 90.906H94.545V94.543H98.182V90.906ZM101.818 90.906H98.182V94.543H101.818V90.906ZM105.455 90.906H101.818V94.543H105.455V90.906ZM109.091 90.906H105.455V94.543H109.091V90.906ZM43.636 94.547H40V98.183H43.636V94.547ZM47.273 94.547H43.636V98.183H47.273V94.547ZM54.545 94.547H50.91V98.183H54.546V94.547H54.545ZM61.818 94.547H58.182V98.183H61.818V94.547ZM72.727 94.547H69.091V98.183H72.727V94.547ZM83.636 94.547H80V98.183H83.636V94.547ZM87.273 94.547H83.636V98.183H87.273V94.547ZM90.91 94.547H87.273V98.183H90.909V94.547H90.91ZM94.545 94.547H90.91V98.183H94.546L94.545 94.547Z" fill="black"/>
<path d="M98.182 94.5469H94.545V98.1829H98.182V94.5469ZM112.727 94.5469H109.091V98.1829H112.727V94.5469ZM40 98.1799H36.364V101.816H40V98.1799ZM54.545 98.1799H50.91V101.816H54.546V98.1799H54.545Z" fill="black"/>
<path d="M58.182 98.1799H54.545V101.816H58.182V98.1799Z" fill="black"/>
<path d="M61.818 98.1799H58.182V101.816H61.818V98.1799ZM72.727 98.1799H69.091V101.816H72.727V98.1799ZM76.364 98.1799H72.727V101.816H76.364V98.1799ZM90.91 98.1799H87.273V101.816H90.909V98.1799H90.91ZM94.545 98.1799H90.91V101.816H94.546L94.545 98.1799Z" fill="black"/>
<path d="M98.182 98.1799H94.545V101.816H98.182V98.1799ZM101.818 98.1799H98.182V101.816H101.818V98.1799ZM105.455 98.1799H101.818V101.816H105.455V98.1799ZM109.091 98.1799H105.455V101.816H109.091V98.1799ZM43.636 101.82H40V105.457H43.636V101.82ZM50.91 101.82H47.273V105.457H50.909L50.91 101.82ZM58.182 101.82H54.545V105.457H58.182V101.82Z" fill="black"/>
<path d="M61.818 101.82H58.182V105.457H61.818V101.82ZM72.727 101.82H69.091V105.457H72.727V101.82ZM87.273 101.82H83.636V105.457H87.273V101.82ZM98.182 101.82H94.545V105.457H98.182V101.82ZM101.818 101.82H98.182V105.457H101.818V101.82ZM105.455 101.82H101.818V105.457H105.455V101.82ZM112.727 101.82H109.091V105.457H112.727V101.82ZM47.273 105.453H43.636V109.089H47.273V105.453Z" fill="black"/>
<path d="M50.91 105.453H47.273V109.089H50.909L50.91 105.453ZM54.545 105.453H50.91L50.909 109.089H54.546V105.453H54.545ZM65.454 105.453H61.818V109.089H65.454V105.453ZM72.727 105.453H69.091V109.089H72.727V105.453ZM76.364 105.453H72.727V109.089H76.364V105.453ZM83.636 105.453H80V109.089H83.636V105.453ZM87.273 105.453H83.636V109.089H87.273V105.453ZM109.091 105.453H105.455V109.089H109.091V105.453ZM40 109.094H36.364V112.73H40V109.094ZM54.545 109.094H50.91V112.73H54.546V109.094H54.545Z" fill="black"/>
<path d="M58.182 109.094H54.545V112.73H58.182V109.094Z" fill="black"/>
<path d="M61.818 109.094H58.182V112.73H61.818V109.094Z" fill="black"/>
<path d="M65.454 109.094H61.818V112.73H65.454V109.094ZM69.09 109.094H65.454V112.73H69.091V109.094H69.09ZM83.636 109.094H80V112.73H83.636V109.094ZM94.545 109.094H90.91V112.73H94.546L94.545 109.094Z" fill="black"/>
<path d="M98.182 109.094H94.545V112.73H98.182V109.094ZM101.818 109.094H98.182V112.73H101.818V109.094ZM109.091 109.094H105.455V112.73H109.091V109.094ZM28.91 7.27295H7.272V32.728H32.727V7.27295H28.91ZM28.91 28.91H11.09V11.0919H28.91V28.91ZM108.909 7.27295H87.273V32.728H112.727V7.27295H108.909ZM108.909 28.91H91.091V11.0919H108.909V28.91ZM28.91 87.2729H7.272V112.728H32.727V87.2729H28.91ZM28.91 108.91H11.09V91.0919H28.91V108.91Z" fill="black"/>
<path d="M25.454 14.5469H14.545V25.4559H25.455V14.5459L25.454 14.5469ZM105.455 14.5469H94.545V25.4559H105.455V14.5459V14.5469ZM25.454 94.5469H14.545V105.456H25.455V94.5459L25.454 94.5469Z" fill="black"/>
</g>
</g>
<defs>
<clipPath id="clip0_2735_8437">
<rect width="120" height="120" fill="white"/>
</clipPath>
</defs>
</svg>
