<svg width="60" height="61" viewBox="0 0 60 61" fill="none" xmlns="http://www.w3.org/2000/svg">
<rect y="0.172363" width="60" height="60" rx="8" fill="white" fill-opacity="0.08"/>
<path d="M38.5312 32.5852C39.1354 32.5852 39.625 33.0749 39.625 33.679V34.9915C39.625 35.5956 39.1354 36.0852 38.5312 36.0852H36.0156C35.4115 36.0852 34.9219 35.5956 34.9219 34.9915V33.679C34.9219 33.0749 35.4115 32.5852 36.0156 32.5852H38.5312ZM41.8125 30.6165V27.3352H18.1875V36.0786C18.1875 37.2847 19.1689 38.2661 20.375 38.2661H39.625C40.8311 38.2661 41.8125 37.2847 41.8125 36.0786C41.8125 35.4745 42.3021 34.9849 42.9062 34.9849C43.5104 34.9849 44 35.4745 44 36.0786C44 38.4911 42.0374 40.4536 39.625 40.4536H20.375C17.9626 40.4536 16 38.4911 16 36.0786V24.2661C16 21.8537 17.9626 19.8911 20.375 19.8911H39.625C42.0374 19.8911 44 21.8537 44 24.2661V30.6165C44 31.2206 43.5104 31.7102 42.9062 31.7102C42.3021 31.7102 41.8125 31.2206 41.8125 30.6165ZM41.8125 25.1477V24.2661C41.8125 23.06 40.8311 22.0786 39.625 22.0786H20.375C19.1689 22.0786 18.1875 23.06 18.1875 24.2661V25.1477H41.8125ZM21.4688 29.5227C20.8646 29.5227 20.375 30.0124 20.375 30.6165C20.375 31.2206 20.8646 31.7102 21.4688 31.7102H30.4922C31.0963 31.7102 31.5859 31.2206 31.5859 30.6165C31.5859 30.0124 31.0963 29.5227 30.4922 29.5227H21.4688Z" fill="url(#paint0_linear_2829_587)"/>
<defs>
<linearGradient id="paint0_linear_2829_587" x1="10.3506" y1="11.3797" x2="20.7366" y2="52.1043" gradientUnits="userSpaceOnUse">
<stop stop-color="#66BB6A"/>
<stop offset="1" stop-color="#1B5E20"/>
</linearGradient>
</defs>
</svg>
