<?xml version="1.0" standalone="no"?>
<!DOCTYPE svg PUBLIC "-//W3C//DTD SVG 20010904//EN"
 "http://www.w3.org/TR/2001/REC-SVG-20010904/DTD/svg10.dtd">
<svg version="1.0" xmlns="http://www.w3.org/2000/svg"
 width="700.000000pt" height="700.000000pt" viewBox="0 0 700.000000 700.000000"
 preserveAspectRatio="xMidYMid meet">
<metadata>
Created by potrace 1.14, written by Peter Selinger 2001-2017
</metadata>
<g transform="translate(0.000000,700.000000) scale(0.100000,-0.100000)"
fill="#000000" stroke="none">
<path d="M0 3500 l0 -3500 3500 0 3500 0 0 3500 0 3500 -3500 0 -3500 0 0
-3500z m3846 1578 c-13 -29 -171 -350 -351 -713 l-328 -659 -24 29 c-13 17
-46 63 -73 103 -42 63 -48 76 -40 98 30 79 586 1153 607 1172 22 20 34 22 128
22 l105 0 -24 -52z m-2761 18 c27 -41 1208 -2448 1220 -2487 7 -22 7 -22 -114
-17 -67 3 -127 10 -132 15 -8 8 -826 1681 -1144 2341 l-84 172 120 0 c114 0
119 -1 134 -24z m890 0 c28 -43 1225 -2487 1225 -2501 0 -4 -54 -6 -120 -3
-88 3 -124 8 -134 19 -11 12 -264 529 -1112 2277 l-113 232 119 0 c115 0 120
-1 135 -24z m3290 14 c263 -16 462 -88 631 -228 120 -99 213 -246 251 -397 26
-105 23 -352 -6 -459 -44 -166 -136 -306 -255 -391 -101 -72 -229 -123 -475
-191 -68 -19 -126 -36 -128 -38 -2 -2 135 -183 306 -402 171 -220 311 -402
311 -406 0 -10 -272 -10 -287 0 -7 4 -188 239 -402 522 l-389 515 91 6 c51 4
145 7 210 8 418 4 637 99 742 323 84 179 84 374 1 543 -83 168 -255 295 -488
362 -92 26 -98 26 -474 30 l-381 5 -26 -24 c-15 -13 -210 -387 -467 -893 -243
-478 -443 -871 -444 -872 -2 -3 -67 105 -109 181 -23 41 -27 59 -23 89 4 22
103 226 221 455 118 230 308 602 423 827 189 373 211 412 242 427 32 16 72 18
405 18 204 0 438 -5 520 -10z m-495 -1977 c234 -289 427 -529 428 -534 4 -10
-217 -12 -243 -3 -9 4 -125 140 -257 303 -133 163 -279 342 -325 399 -122 148
-118 134 -76 258 19 57 38 104 41 103 4 0 198 -237 432 -526z m-4160 -1136
c16 -8 26 -23 28 -41 3 -26 1 -28 -20 -21 -70 22 -121 17 -132 -11 -12 -32 6
-55 74 -89 79 -40 100 -64 100 -118 0 -81 -55 -127 -152 -127 -72 0 -102 17
-106 58 -4 37 -4 37 34 17 36 -18 104 -19 128 -2 12 9 17 23 14 42 -2 25 -13
35 -63 62 -80 42 -105 73 -105 126 0 50 21 84 64 103 39 17 103 17 136 1z
m240 -157 c5 -145 6 -153 29 -171 35 -28 92 -25 122 7 23 24 24 33 27 174 4
158 6 164 55 152 15 -4 17 -20 17 -156 0 -172 -10 -205 -71 -238 -48 -26 -153
-25 -197 2 -53 32 -62 69 -62 239 0 134 2 150 18 153 9 3 26 1 37 -2 19 -7 20
-19 25 -160z m625 156 c31 -13 35 -19 35 -52 0 -36 0 -36 -24 -21 -95 63 -186
2 -186 -125 0 -119 79 -180 172 -132 35 18 54 8 43 -25 -10 -31 -56 -51 -120
-51 -117 0 -176 66 -177 200 -1 104 33 167 107 201 48 22 104 24 150 5z m385
-4 c34 -17 47 -40 37 -67 -5 -10 -14 -9 -46 7 -122 60 -210 -72 -149 -225 20
-52 87 -70 155 -42 45 19 43 20 43 -16 0 -42 -50 -63 -137 -57 -104 7 -152 59
-161 177 -8 111 28 188 102 222 52 23 111 24 156 1z m211 8 c6 0 8 -81 7 -202
l-3 -203 -35 0 -35 0 -3 202 c-2 186 -1 202 15 206 10 3 24 3 31 1 8 -2 18 -4
23 -4z m867 -11 c15 -10 22 -24 22 -46 l0 -32 -42 19 c-52 24 -70 24 -108 5
-46 -24 -63 -66 -58 -151 3 -60 8 -77 27 -98 39 -41 82 -44 164 -11 14 6 17 2
17 -24 0 -40 -39 -61 -115 -61 -107 0 -168 58 -181 172 -12 103 37 204 116
237 32 14 130 7 158 -10z m1610 10 c32 -11 51 -44 35 -60 -6 -6 -20 -6 -37 1
-39 14 -92 12 -106 -4 -26 -32 -7 -59 68 -101 77 -42 101 -70 101 -120 1 -72
-60 -125 -144 -125 -70 0 -112 16 -117 43 -8 40 1 48 32 32 39 -20 114 -19
134 1 36 35 17 68 -64 109 -77 39 -107 82 -96 139 6 32 46 78 76 89 26 9 86 7
118 -4z m717 -1 c7 -7 135 -382 135 -395 0 -10 -10 -13 -37 -11 -34 3 -39 7
-54 48 l-17 45 -83 0 -83 0 -11 -35 c-15 -51 -23 -60 -56 -60 -16 0 -29 5 -29
13 0 6 30 98 66 204 45 129 72 194 83 197 15 4 81 0 86 -6z m889 -11 c19 -13
26 -26 26 -48 0 -17 -3 -29 -7 -27 -64 33 -90 40 -123 32 -92 -23 -118 -197
-40 -266 35 -32 72 -36 127 -13 45 19 43 20 43 -16 0 -25 -6 -32 -37 -46 -52
-21 -149 -14 -190 15 -48 34 -68 85 -68 177 0 69 4 86 27 126 36 62 93 92 165
86 28 -2 63 -11 77 -20z m197 13 c5 0 9 -36 9 -80 l0 -80 85 0 85 0 0 79 c0
84 7 95 49 84 20 -5 21 -11 21 -209 l0 -204 -35 0 -35 0 0 90 0 90 -85 0 -85
0 0 -91 0 -90 -37 3 -38 3 -3 202 c-2 186 -1 202 15 206 10 3 24 3 31 1 8 -2
18 -4 23 -4z m-3949 -155 l78 -150 0 153 0 152 35 0 35 0 0 -200 0 -200 -25
-6 c-63 -16 -73 -5 -186 214 l-54 104 -5 -159 -5 -158 -30 0 -30 0 -3 190 c-1
104 0 195 3 203 3 9 20 12 57 10 l52 -3 78 -150z m936 128 c-3 -27 -6 -28 -60
-31 l-58 -3 0 -175 0 -175 -37 3 -38 3 -3 173 -2 172 -55 0 c-54 0 -55 0 -55
30 l0 30 156 0 155 0 -3 -27z m502 12 c38 -19 50 -43 50 -96 0 -35 -6 -47 -37
-77 -26 -24 -34 -37 -25 -40 16 -5 82 -138 82 -165 0 -15 -7 -18 -37 -15 -35
3 -38 6 -65 72 -35 87 -43 96 -84 96 l-33 0 -3 -82 -3 -83 -35 0 -35 0 -3 190
c-1 104 0 195 2 202 8 19 188 18 226 -2z m418 -12 c-3 -28 -4 -28 -80 -31
l-78 -3 0 -54 0 -55 65 0 c63 0 65 -1 65 -25 0 -24 -2 -25 -65 -25 l-65 0 0
-65 0 -65 81 0 80 0 -3 -27 -3 -28 -115 0 -115 0 -3 203 -2 202 120 0 121 0
-3 -27z m690 0 c-3 -28 -4 -28 -81 -31 l-78 -3 3 -52 3 -52 68 -3 c64 -3 67
-4 67 -27 0 -24 -2 -25 -70 -25 l-70 0 0 -65 0 -65 79 0 c82 0 98 -9 84 -45
-4 -13 -24 -15 -117 -13 l-111 3 -3 203 -2 202 115 0 116 0 -3 -27z m796 -2
c51 -48 42 -135 -16 -171 -26 -16 -27 -18 -12 -31 17 -14 84 -148 84 -168 0
-6 -18 -11 -39 -11 -39 0 -39 0 -66 68 -33 82 -50 102 -86 102 l-28 0 -3 -82
-3 -83 -37 -3 -38 -3 0 206 0 207 109 -4 c99 -3 112 -5 135 -27z"/>
<path d="M5206 1920 c-8 -21 -56 -163 -56 -167 0 -2 27 -3 60 -3 33 0 60 4 60
8 0 26 -59 175 -64 162z"/>
<path d="M3690 1886 l0 -66 38 0 c53 0 82 23 82 64 0 42 -18 57 -75 64 l-45 5
0 -67z"/>
<path d="M5580 1886 l0 -66 40 0 c46 0 80 27 80 63 0 39 -23 59 -73 64 l-47 6
0 -67z"/>
</g>
</svg>
