<?xml version="1.0" encoding="utf-8"?>
<!-- Generator: Adobe Illustrator 24.3.0, SVG Export Plug-In . SVG Version: 6.00 Build 0)  -->
<svg version="1.1" id="Layer_1" xmlns="http://www.w3.org/2000/svg" xmlns:xlink="http://www.w3.org/1999/xlink" x="0px" y="0px"
	 viewBox="0 0 480 480" style="enable-background:new 0 0 480 480;" xml:space="preserve">
<style type="text/css">
	.st0{display:none;}
	.st1{fill:#FFFFFF;}
	.st2{fill:#FFFFFF;}
	.st3{opacity:0.8;}
</style>
<rect class="st0" width="480" height="480"/>
<path class="st1" d="M330.28,230.22c2.4,0,3.92,0.05,5.45-0.01c11.39-0.46,22.89-0.08,34.14-1.62c14.95-2.04,27.86-8.36,33.64-23.73
	c8.2-21.78-0.18-43.08-20.96-53.88c-9.7-5.04-20.03-7.68-31.01-7.64c-13.14,0.05-26.29,0.16-39.43,0.04
	c-2.8-0.02-4.36,0.92-5.59,3.34c-15.35,30.29-30.76,60.55-46.16,90.81c-4.67,9.19-9.36,18.37-14.56,28.57
	c-2.57-4.32-4.4-7.89-6.7-11.14c-2.96-4.18-3.17-7.71-0.63-12.59c18.79-36.12,37.22-72.43,55.64-108.75
	c1.65-3.26,3.6-4.56,7.31-4.53c19.9,0.2,39.82-0.36,59.69,0.35c12.38,0.44,24.43,3.74,35.25,10.14
	c19.88,11.76,27.93,29.78,26.57,52.32c-1.02,16.75-7.36,31.14-21.66,40.59c-5.94,3.93-13.18,6.04-20.03,8.41
	c-6.09,2.11-12.45,3.42-19.61,5.33c14.69,18.92,28.85,37.15,43.55,56.08c-7.12,0-13.27,0.11-19.42-0.11
	c-1.01-0.04-2.14-1.45-2.91-2.46c-15.32-20.19-30.6-40.41-45.88-60.63C334.94,236.4,332.9,233.69,330.28,230.22z"/>
<path class="st1" d="M57.17,128.64c5.51,0,10.4-0.19,15.25,0.15c1.08,0.08,2.35,1.88,2.99,3.16c11.4,23.09,22.72,46.22,34.06,69.35
	c15.77,32.18,31.53,64.35,47.28,96.54c0.57,1.16,0.94,2.42,1.63,4.25c-5.68,0-10.91,0.13-16.12-0.13c-0.86-0.04-1.89-1.66-2.42-2.76
	c-16.35-33.52-32.64-67.08-48.96-100.62c-10.86-22.32-21.74-44.63-32.6-66.95C57.94,130.95,57.74,130.19,57.17,128.64z"/>
<path class="st1" d="M118,128.64c5.63,0,10.39-0.13,15.13,0.1c0.99,0.05,2.31,1.24,2.81,2.24c14.36,29.14,28.63,58.33,42.92,87.51
	c11.55,23.58,23.1,47.16,34.63,70.75c1.96,4.01,3.87,8.06,6.19,12.89c-5.89,0-11.1,0.11-16.29-0.11c-0.82-0.03-1.86-1.37-2.33-2.34
	c-15.4-31.59-30.73-63.21-46.09-94.81c-11.66-23.97-23.35-47.93-35.02-71.89C119.37,131.83,118.88,130.64,118,128.64z"/>
<path class="st1" d="M265.39,128.5c-16.29,32.91-32.06,64.78-48.31,97.62c-3.58-5.02-6.72-9.18-9.52-13.55
	c-0.5-0.78,0.11-2.57,0.66-3.66c13.15-25.87,26.39-51.7,39.53-77.58c1.04-2.04,2.2-3,4.56-2.88
	C256.26,128.64,260.22,128.5,265.39,128.5z"/>
<path class="st1" d="M357.01,302.18c-6.25,0-11.49,0.13-16.72-0.11c-1.05-0.05-2.25-1.31-3.04-2.28
	c-14.62-17.86-29.2-35.76-43.71-53.7c-0.72-0.89-1.35-2.49-1.05-3.48c1.31-4.42,2.97-8.74,4.83-14.04
	C317.39,253.32,336.98,277.48,357.01,302.18z"/>
<polygon class="st1" points="58.4,131.92 56.93,128.65 57.42,128.64 "/>
<polygon class="st1" points="265.39,128.5 251.98,128.47 252.02,132.69 "/>
<polygon class="st1" points="157.23,298.99 158.53,302.08 158.27,302.09 "/>
<path class="st2" d="M45.71,362.43c0,1.51-0.28,2.83-0.84,3.97c-0.56,1.14-1.32,2.09-2.29,2.85c-0.96,0.76-2.09,1.33-3.37,1.72
	c-1.29,0.39-2.66,0.58-4.13,0.58c-0.99,0-1.91-0.08-2.76-0.24c-0.85-0.16-1.6-0.36-2.25-0.59c-0.65-0.23-1.19-0.47-1.63-0.72
	c-0.44-0.25-0.75-0.47-0.94-0.66c-0.19-0.19-0.33-0.47-0.41-0.83c-0.08-0.36-0.12-0.88-0.12-1.56c0-0.46,0.01-0.84,0.04-1.15
	c0.03-0.31,0.08-0.56,0.14-0.76c0.07-0.19,0.15-0.33,0.27-0.41c0.11-0.08,0.24-0.12,0.39-0.12c0.21,0,0.5,0.12,0.88,0.37
	c0.38,0.24,0.86,0.51,1.45,0.81c0.59,0.3,1.3,0.57,2.12,0.81c0.82,0.24,1.77,0.37,2.85,0.37c0.71,0,1.35-0.09,1.91-0.26
	c0.56-0.17,1.04-0.41,1.43-0.72c0.39-0.31,0.69-0.7,0.9-1.15c0.21-0.46,0.31-0.97,0.31-1.53c0-0.65-0.18-1.21-0.53-1.68
	c-0.36-0.47-0.82-0.88-1.39-1.24c-0.57-0.36-1.22-0.7-1.94-1.02c-0.73-0.32-1.47-0.65-2.24-1.01c-0.77-0.36-1.52-0.76-2.24-1.21
	c-0.73-0.45-1.37-0.99-1.94-1.62c-0.57-0.63-1.03-1.37-1.39-2.23c-0.36-0.86-0.53-1.89-0.53-3.08c0-1.38,0.25-2.58,0.77-3.63
	c0.51-1.04,1.2-1.91,2.06-2.6c0.87-0.69,1.89-1.2,3.06-1.54c1.18-0.34,2.42-0.51,3.74-0.51c0.68,0,1.36,0.05,2.04,0.15
	c0.68,0.1,1.32,0.24,1.91,0.42c0.59,0.18,1.12,0.38,1.58,0.6c0.46,0.22,0.76,0.41,0.91,0.55c0.15,0.15,0.25,0.27,0.3,0.38
	c0.05,0.1,0.1,0.24,0.13,0.41c0.04,0.17,0.06,0.39,0.08,0.64c0.01,0.26,0.02,0.58,0.02,0.96c0,0.43-0.01,0.79-0.03,1.09
	c-0.02,0.3-0.06,0.54-0.11,0.73c-0.05,0.19-0.13,0.33-0.22,0.42c-0.1,0.09-0.23,0.13-0.39,0.13c-0.16,0-0.42-0.1-0.78-0.31
	c-0.36-0.21-0.79-0.43-1.31-0.68c-0.52-0.24-1.12-0.47-1.8-0.67c-0.68-0.2-1.43-0.3-2.24-0.3c-0.64,0-1.19,0.08-1.66,0.23
	c-0.47,0.16-0.87,0.37-1.19,0.64c-0.32,0.27-0.55,0.6-0.71,0.99c-0.15,0.39-0.23,0.79-0.23,1.22c0,0.64,0.17,1.19,0.52,1.65
	c0.35,0.47,0.81,0.88,1.4,1.24c0.58,0.36,1.25,0.7,1.99,1.02c0.74,0.32,1.49,0.65,2.26,1.01c0.77,0.36,1.52,0.76,2.26,1.21
	c0.74,0.45,1.4,0.99,1.97,1.62c0.58,0.63,1.04,1.37,1.4,2.22C45.53,360.28,45.71,361.28,45.71,362.43z"/>
<path class="st2" d="M75.87,360.35c0,1.76-0.26,3.34-0.78,4.73c-0.52,1.39-1.28,2.57-2.29,3.53c-1.01,0.96-2.25,1.69-3.73,2.2
	c-1.48,0.5-3.18,0.76-5.1,0.76c-1.8,0-3.42-0.23-4.86-0.68c-1.44-0.45-2.65-1.13-3.64-2.05c-0.99-0.92-1.75-2.06-2.27-3.43
	c-0.53-1.37-0.79-2.97-0.79-4.8v-17.46c0-0.15,0.04-0.28,0.13-0.4c0.09-0.12,0.25-0.21,0.48-0.29c0.23-0.07,0.53-0.13,0.9-0.18
	c0.37-0.05,0.84-0.07,1.42-0.07c0.56,0,1.03,0.02,1.4,0.07c0.37,0.04,0.67,0.1,0.89,0.18c0.22,0.07,0.38,0.17,0.48,0.29
	c0.1,0.12,0.14,0.25,0.14,0.4v16.95c0,1.14,0.14,2.13,0.42,2.96c0.28,0.84,0.68,1.53,1.21,2.07c0.52,0.55,1.15,0.96,1.89,1.23
	c0.73,0.27,1.55,0.41,2.45,0.41c0.92,0,1.74-0.14,2.46-0.42c0.72-0.28,1.34-0.69,1.84-1.23c0.5-0.54,0.89-1.2,1.16-2
	c0.27-0.79,0.41-1.69,0.41-2.7v-17.28c0-0.15,0.04-0.28,0.13-0.4c0.09-0.12,0.24-0.21,0.47-0.29c0.22-0.07,0.52-0.13,0.9-0.18
	c0.38-0.05,0.85-0.07,1.41-0.07c0.56,0,1.02,0.02,1.39,0.07c0.36,0.04,0.65,0.1,0.88,0.18c0.22,0.07,0.38,0.17,0.47,0.29
	c0.09,0.12,0.13,0.25,0.13,0.4V360.35z"/>
<path class="st2" d="M104.24,366.7c0,0.37-0.01,0.68-0.03,0.94c-0.02,0.26-0.06,0.48-0.1,0.67c-0.04,0.19-0.1,0.34-0.18,0.48
	c-0.07,0.13-0.19,0.28-0.36,0.45c-0.16,0.17-0.48,0.39-0.94,0.65c-0.47,0.27-1.04,0.52-1.71,0.77c-0.67,0.24-1.44,0.45-2.31,0.61
	c-0.86,0.16-1.8,0.24-2.81,0.24c-1.97,0-3.74-0.3-5.33-0.91c-1.58-0.61-2.93-1.51-4.04-2.72c-1.11-1.21-1.96-2.71-2.55-4.52
	c-0.59-1.8-0.89-3.91-0.89-6.3c0-2.44,0.33-4.61,0.98-6.5c0.65-1.89,1.56-3.48,2.73-4.77c1.17-1.29,2.57-2.26,4.21-2.93
	c1.63-0.67,3.44-1,5.4-1c0.8,0,1.57,0.07,2.31,0.2c0.74,0.13,1.42,0.31,2.05,0.52c0.63,0.21,1.19,0.46,1.7,0.74
	c0.5,0.28,0.85,0.52,1.05,0.72c0.2,0.2,0.34,0.37,0.41,0.5c0.07,0.13,0.13,0.3,0.18,0.51c0.04,0.21,0.08,0.45,0.1,0.73
	c0.02,0.28,0.03,0.63,0.03,1.04c0,0.44-0.02,0.82-0.04,1.13c-0.03,0.31-0.08,0.56-0.16,0.75c-0.07,0.19-0.16,0.33-0.27,0.42
	c-0.1,0.09-0.22,0.13-0.36,0.13c-0.22,0-0.5-0.13-0.84-0.39c-0.34-0.26-0.78-0.55-1.32-0.87c-0.54-0.32-1.18-0.61-1.93-0.86
	s-1.64-0.39-2.67-0.39c-1.14,0-2.16,0.23-3.05,0.7c-0.9,0.47-1.66,1.13-2.28,2c-0.63,0.86-1.11,1.91-1.43,3.14
	c-0.33,1.23-0.49,2.61-0.49,4.15c0,1.69,0.17,3.15,0.52,4.38s0.84,2.25,1.49,3.05c0.64,0.8,1.42,1.39,2.33,1.79
	c0.91,0.39,1.93,0.59,3.07,0.59c1.04,0,1.93-0.12,2.68-0.37c0.75-0.24,1.4-0.51,1.94-0.81c0.54-0.3,0.98-0.56,1.33-0.8
	c0.35-0.24,0.62-0.36,0.81-0.36c0.15,0,0.27,0.03,0.36,0.09c0.09,0.06,0.16,0.18,0.22,0.36c0.06,0.18,0.1,0.43,0.13,0.74
	C104.22,365.74,104.24,366.16,104.24,366.7z"/>
<path class="st2" d="M130.56,366.7c0,0.37-0.01,0.68-0.03,0.94c-0.02,0.26-0.06,0.48-0.1,0.67c-0.04,0.19-0.1,0.34-0.18,0.48
	c-0.07,0.13-0.19,0.28-0.36,0.45c-0.16,0.17-0.48,0.39-0.94,0.65c-0.47,0.27-1.04,0.52-1.71,0.77c-0.67,0.24-1.44,0.45-2.31,0.61
	c-0.86,0.16-1.8,0.24-2.81,0.24c-1.97,0-3.74-0.3-5.33-0.91c-1.58-0.61-2.93-1.51-4.04-2.72c-1.11-1.21-1.96-2.71-2.55-4.52
	c-0.59-1.8-0.89-3.91-0.89-6.3c0-2.44,0.33-4.61,0.98-6.5c0.65-1.89,1.56-3.48,2.73-4.77c1.17-1.29,2.57-2.26,4.21-2.93
	c1.63-0.67,3.44-1,5.4-1c0.8,0,1.57,0.07,2.31,0.2c0.74,0.13,1.42,0.31,2.05,0.52c0.63,0.21,1.19,0.46,1.7,0.74
	c0.5,0.28,0.85,0.52,1.05,0.72c0.2,0.2,0.34,0.37,0.41,0.5c0.07,0.13,0.13,0.3,0.18,0.51c0.04,0.21,0.08,0.45,0.1,0.73
	c0.02,0.28,0.03,0.63,0.03,1.04c0,0.44-0.02,0.82-0.04,1.13c-0.03,0.31-0.08,0.56-0.16,0.75c-0.07,0.19-0.16,0.33-0.27,0.42
	c-0.1,0.09-0.22,0.13-0.36,0.13c-0.22,0-0.5-0.13-0.84-0.39c-0.34-0.26-0.78-0.55-1.32-0.87c-0.54-0.32-1.18-0.61-1.93-0.86
	s-1.64-0.39-2.67-0.39c-1.14,0-2.16,0.23-3.05,0.7c-0.9,0.47-1.66,1.13-2.28,2c-0.63,0.86-1.11,1.91-1.43,3.14
	c-0.33,1.23-0.49,2.61-0.49,4.15c0,1.69,0.17,3.15,0.52,4.38s0.84,2.25,1.49,3.05c0.64,0.8,1.42,1.39,2.33,1.79
	c0.91,0.39,1.93,0.59,3.07,0.59c1.04,0,1.93-0.12,2.68-0.37c0.75-0.24,1.4-0.51,1.94-0.81c0.54-0.3,0.98-0.56,1.33-0.8
	c0.35-0.24,0.62-0.36,0.81-0.36c0.15,0,0.27,0.03,0.36,0.09c0.09,0.06,0.16,0.18,0.22,0.36c0.06,0.18,0.1,0.43,0.13,0.74
	C130.55,365.74,130.56,366.16,130.56,366.7z"/>
<path class="st2" d="M142.89,370.25c0,0.15-0.05,0.28-0.14,0.4c-0.1,0.12-0.25,0.21-0.48,0.29c-0.22,0.07-0.52,0.13-0.89,0.18
	c-0.37,0.04-0.84,0.07-1.42,0.07c-0.56,0-1.03-0.02-1.41-0.07c-0.38-0.05-0.68-0.1-0.9-0.18c-0.22-0.07-0.38-0.17-0.48-0.29
	c-0.1-0.12-0.14-0.25-0.14-0.4v-27.12c0-0.15,0.05-0.28,0.14-0.4c0.1-0.12,0.26-0.21,0.49-0.29c0.23-0.07,0.53-0.13,0.9-0.18
	c0.37-0.05,0.84-0.07,1.4-0.07c0.58,0,1.05,0.02,1.42,0.07c0.37,0.04,0.67,0.1,0.89,0.18c0.22,0.07,0.38,0.17,0.48,0.29
	c0.1,0.12,0.14,0.25,0.14,0.4V370.25z"/>
<path class="st2" d="M175.09,369c0,0.34-0.06,0.64-0.18,0.91c-0.12,0.27-0.28,0.49-0.48,0.67c-0.2,0.18-0.44,0.31-0.71,0.39
	c-0.27,0.08-0.55,0.12-0.83,0.12h-2.49c-0.52,0-0.96-0.05-1.34-0.15c-0.38-0.1-0.72-0.29-1.04-0.57c-0.32-0.27-0.63-0.64-0.92-1.11
	c-0.3-0.47-0.63-1.07-1-1.81l-7.14-13.43c-0.41-0.8-0.84-1.66-1.26-2.58c-0.43-0.92-0.81-1.82-1.15-2.7h-0.04
	c0.06,1.07,0.1,2.13,0.13,3.18c0.03,1.06,0.04,2.15,0.04,3.27v15.02c0,0.15-0.04,0.28-0.12,0.4c-0.08,0.12-0.22,0.22-0.42,0.3
	c-0.2,0.08-0.47,0.14-0.81,0.19c-0.34,0.04-0.78,0.07-1.31,0.07c-0.52,0-0.95-0.02-1.29-0.07c-0.34-0.05-0.61-0.11-0.8-0.19
	c-0.19-0.08-0.33-0.18-0.4-0.3c-0.07-0.12-0.11-0.25-0.11-0.4v-25.81c0-0.69,0.2-1.22,0.61-1.56s0.91-0.52,1.5-0.52h3.13
	c0.56,0,1.04,0.05,1.42,0.14c0.38,0.1,0.73,0.26,1.03,0.48c0.3,0.22,0.59,0.53,0.85,0.92c0.27,0.39,0.54,0.88,0.82,1.45l5.59,10.5
	c0.33,0.64,0.65,1.26,0.96,1.87c0.32,0.61,0.63,1.23,0.92,1.84c0.3,0.61,0.58,1.22,0.87,1.81c0.28,0.59,0.55,1.18,0.82,1.78h0.02
	c-0.04-1.04-0.08-2.12-0.1-3.24c-0.02-1.12-0.03-2.2-0.03-3.22V343.2c0-0.15,0.04-0.28,0.13-0.4c0.09-0.12,0.24-0.22,0.44-0.31
	c0.21-0.09,0.48-0.15,0.82-0.19c0.34-0.04,0.78-0.06,1.31-0.06c0.5,0,0.92,0.02,1.26,0.06c0.34,0.04,0.6,0.1,0.79,0.19
	c0.18,0.09,0.31,0.19,0.39,0.31c0.07,0.12,0.11,0.25,0.11,0.4V369z"/>
<path class="st2" d="M203.48,366.7c0,0.37-0.01,0.68-0.03,0.94c-0.02,0.26-0.06,0.48-0.1,0.67c-0.04,0.19-0.1,0.34-0.18,0.48
	c-0.07,0.13-0.19,0.28-0.36,0.45c-0.16,0.17-0.48,0.39-0.94,0.65c-0.47,0.27-1.04,0.52-1.71,0.77c-0.67,0.24-1.44,0.45-2.31,0.61
	c-0.86,0.16-1.8,0.24-2.81,0.24c-1.97,0-3.74-0.3-5.33-0.91c-1.58-0.61-2.93-1.51-4.04-2.72c-1.11-1.21-1.96-2.71-2.55-4.52
	c-0.59-1.8-0.89-3.91-0.89-6.3c0-2.44,0.33-4.61,0.98-6.5c0.65-1.89,1.56-3.48,2.73-4.77c1.17-1.29,2.57-2.26,4.21-2.93
	c1.63-0.67,3.43-1,5.4-1c0.8,0,1.57,0.07,2.31,0.2c0.74,0.13,1.42,0.31,2.05,0.52c0.63,0.21,1.19,0.46,1.7,0.74
	c0.5,0.28,0.85,0.52,1.05,0.72c0.2,0.2,0.34,0.37,0.41,0.5c0.07,0.13,0.13,0.3,0.18,0.51c0.04,0.21,0.08,0.45,0.1,0.73
	c0.02,0.28,0.03,0.63,0.03,1.04c0,0.44-0.02,0.82-0.04,1.13c-0.03,0.31-0.08,0.56-0.16,0.75c-0.07,0.19-0.16,0.33-0.27,0.42
	c-0.1,0.09-0.22,0.13-0.36,0.13c-0.22,0-0.5-0.13-0.84-0.39c-0.34-0.26-0.78-0.55-1.32-0.87c-0.54-0.32-1.18-0.61-1.93-0.86
	s-1.64-0.39-2.67-0.39c-1.14,0-2.16,0.23-3.05,0.7c-0.9,0.47-1.66,1.13-2.28,2c-0.63,0.86-1.11,1.91-1.43,3.14
	c-0.33,1.23-0.49,2.61-0.49,4.15c0,1.69,0.17,3.15,0.52,4.38c0.35,1.24,0.84,2.25,1.49,3.05c0.64,0.8,1.42,1.39,2.33,1.79
	c0.91,0.39,1.93,0.59,3.07,0.59c1.04,0,1.93-0.12,2.68-0.37c0.75-0.24,1.4-0.51,1.94-0.81c0.54-0.3,0.98-0.56,1.33-0.8
	c0.35-0.24,0.62-0.36,0.81-0.36c0.15,0,0.27,0.03,0.36,0.09c0.09,0.06,0.16,0.18,0.22,0.36c0.06,0.18,0.1,0.43,0.13,0.74
	C203.47,365.74,203.48,366.16,203.48,366.7z"/>
<path class="st2" d="M229.27,344.73c0,0.43-0.02,0.8-0.06,1.1c-0.04,0.3-0.09,0.55-0.17,0.73c-0.07,0.19-0.17,0.32-0.28,0.41
	c-0.11,0.09-0.23,0.13-0.37,0.13h-7.19v23.14c0,0.15-0.05,0.28-0.14,0.4c-0.1,0.12-0.25,0.21-0.48,0.29
	c-0.22,0.07-0.52,0.13-0.9,0.18c-0.38,0.04-0.85,0.07-1.41,0.07c-0.56,0-1.03-0.02-1.41-0.07c-0.38-0.05-0.68-0.1-0.9-0.18
	c-0.22-0.07-0.38-0.17-0.48-0.29c-0.1-0.12-0.14-0.25-0.14-0.4V347.1h-7.19c-0.15,0-0.27-0.04-0.38-0.13
	c-0.1-0.09-0.19-0.23-0.27-0.41c-0.07-0.18-0.13-0.43-0.17-0.73s-0.06-0.67-0.06-1.1c0-0.44,0.02-0.82,0.06-1.13
	c0.04-0.31,0.09-0.56,0.17-0.74c0.07-0.19,0.16-0.32,0.27-0.4c0.1-0.08,0.23-0.12,0.38-0.12h20.24c0.13,0,0.25,0.04,0.37,0.12
	c0.11,0.08,0.2,0.21,0.28,0.4c0.07,0.19,0.13,0.43,0.17,0.74C229.25,343.91,229.27,344.28,229.27,344.73z"/>
<path class="st2" d="M268.79,370.29c0,0.16-0.03,0.3-0.09,0.41c-0.06,0.11-0.2,0.2-0.42,0.28c-0.22,0.07-0.55,0.13-0.98,0.16
	c-0.43,0.03-1.01,0.04-1.75,0.04c-0.62,0-1.12-0.02-1.49-0.04c-0.37-0.03-0.66-0.09-0.88-0.17c-0.21-0.08-0.37-0.18-0.45-0.31
	c-0.09-0.13-0.16-0.28-0.22-0.45l-2.57-6.41c-0.31-0.72-0.61-1.37-0.91-1.93c-0.29-0.56-0.62-1.03-0.99-1.41
	c-0.36-0.38-0.78-0.66-1.25-0.85c-0.47-0.19-1.02-0.29-1.64-0.29h-1.82v10.94c0,0.15-0.05,0.28-0.14,0.4
	c-0.1,0.12-0.26,0.21-0.48,0.29c-0.22,0.07-0.52,0.13-0.89,0.18c-0.37,0.04-0.84,0.07-1.42,0.07c-0.56,0-1.03-0.02-1.41-0.07
	c-0.38-0.05-0.68-0.1-0.9-0.18c-0.22-0.07-0.38-0.17-0.47-0.29c-0.09-0.12-0.13-0.25-0.13-0.4v-26.07c0-0.65,0.17-1.12,0.5-1.41
	c0.33-0.29,0.74-0.43,1.23-0.43h7.43c0.75,0,1.37,0.02,1.86,0.04c0.49,0.03,0.93,0.07,1.33,0.11c1.15,0.16,2.19,0.44,3.12,0.84
	c0.92,0.4,1.71,0.92,2.35,1.56c0.65,0.64,1.14,1.4,1.48,2.28c0.34,0.88,0.51,1.89,0.51,3.03c0,0.96-0.12,1.84-0.37,2.63
	c-0.24,0.79-0.6,1.5-1.08,2.12c-0.47,0.62-1.06,1.16-1.75,1.62c-0.7,0.46-1.49,0.83-2.37,1.11c0.43,0.21,0.83,0.46,1.21,0.75
	c0.38,0.3,0.73,0.65,1.07,1.08c0.33,0.42,0.65,0.9,0.94,1.44s0.58,1.15,0.87,1.83l2.42,5.66c0.22,0.56,0.37,0.97,0.44,1.23
	C268.75,369.94,268.79,370.14,268.79,370.29z M261.27,350.81c0-0.95-0.21-1.74-0.65-2.4c-0.43-0.65-1.13-1.11-2.11-1.38
	c-0.3-0.07-0.63-0.13-1.01-0.18c-0.38-0.04-0.9-0.07-1.56-0.07h-2.62v8.14h2.97c0.83,0,1.55-0.1,2.17-0.3
	c0.62-0.2,1.14-0.48,1.55-0.84c0.41-0.36,0.72-0.79,0.93-1.3C261.16,351.99,261.27,351.43,261.27,350.81z"/>
<path class="st2" d="M292.36,368.76c0,0.43-0.02,0.79-0.06,1.08c-0.04,0.29-0.09,0.52-0.17,0.7c-0.07,0.18-0.17,0.31-0.28,0.39
	c-0.11,0.08-0.23,0.12-0.37,0.12h-14.42c-0.49,0-0.9-0.14-1.23-0.43c-0.33-0.29-0.5-0.76-0.5-1.41v-25.03c0-0.65,0.17-1.12,0.5-1.41
	c0.33-0.29,0.74-0.43,1.23-0.43h14.33c0.13,0,0.25,0.04,0.36,0.11c0.1,0.07,0.19,0.2,0.27,0.39c0.07,0.19,0.13,0.42,0.17,0.71
	c0.04,0.29,0.06,0.65,0.06,1.1c0,0.41-0.02,0.77-0.06,1.05c-0.04,0.29-0.09,0.52-0.17,0.7c-0.07,0.18-0.16,0.31-0.27,0.39
	c-0.1,0.08-0.22,0.12-0.36,0.12h-10.25v7.01h8.68c0.13,0,0.26,0.04,0.37,0.12c0.11,0.08,0.2,0.21,0.28,0.38
	c0.07,0.17,0.13,0.4,0.17,0.69c0.04,0.29,0.06,0.64,0.06,1.05c0,0.43-0.02,0.78-0.06,1.07c-0.04,0.28-0.09,0.51-0.17,0.68
	c-0.07,0.17-0.17,0.29-0.28,0.37c-0.11,0.07-0.23,0.11-0.37,0.11h-8.68v8.1h10.34c0.13,0,0.26,0.04,0.37,0.12
	c0.11,0.08,0.2,0.21,0.28,0.39c0.07,0.18,0.13,0.41,0.17,0.7C292.34,367.97,292.36,368.33,292.36,368.76z"/>
<path class="st2" d="M316.36,362.43c0,1.51-0.28,2.83-0.84,3.97c-0.56,1.14-1.32,2.09-2.28,2.85c-0.96,0.76-2.09,1.33-3.37,1.72
	c-1.29,0.39-2.66,0.58-4.13,0.58c-0.99,0-1.91-0.08-2.76-0.24c-0.85-0.16-1.6-0.36-2.25-0.59c-0.65-0.23-1.19-0.47-1.63-0.72
	c-0.44-0.25-0.75-0.47-0.94-0.66c-0.19-0.19-0.33-0.47-0.41-0.83s-0.12-0.88-0.12-1.56c0-0.46,0.01-0.84,0.04-1.15
	c0.03-0.31,0.08-0.56,0.15-0.76c0.07-0.19,0.15-0.33,0.27-0.41c0.11-0.08,0.24-0.12,0.39-0.12c0.21,0,0.5,0.12,0.88,0.37
	c0.38,0.24,0.86,0.51,1.45,0.81c0.59,0.3,1.3,0.57,2.12,0.81c0.82,0.24,1.77,0.37,2.85,0.37c0.71,0,1.35-0.09,1.91-0.26
	c0.56-0.17,1.04-0.41,1.43-0.72c0.39-0.31,0.69-0.7,0.9-1.15c0.21-0.46,0.31-0.97,0.31-1.53c0-0.65-0.18-1.21-0.53-1.68
	c-0.36-0.47-0.82-0.88-1.39-1.24c-0.57-0.36-1.22-0.7-1.94-1.02c-0.72-0.32-1.47-0.65-2.24-1.01c-0.77-0.36-1.52-0.76-2.24-1.21
	c-0.73-0.45-1.37-0.99-1.94-1.62c-0.57-0.63-1.03-1.37-1.39-2.23c-0.36-0.86-0.53-1.89-0.53-3.08c0-1.38,0.26-2.58,0.77-3.63
	c0.51-1.04,1.2-1.91,2.06-2.6c0.87-0.69,1.89-1.2,3.06-1.54c1.18-0.34,2.42-0.51,3.74-0.51c0.68,0,1.36,0.05,2.04,0.15
	c0.68,0.1,1.32,0.24,1.91,0.42c0.59,0.18,1.12,0.38,1.58,0.6c0.46,0.22,0.76,0.41,0.91,0.55c0.15,0.15,0.25,0.27,0.3,0.38
	c0.05,0.1,0.1,0.24,0.13,0.41c0.04,0.17,0.06,0.39,0.08,0.64c0.01,0.26,0.02,0.58,0.02,0.96c0,0.43-0.01,0.79-0.03,1.09
	c-0.02,0.3-0.06,0.54-0.11,0.73c-0.05,0.19-0.13,0.33-0.22,0.42c-0.1,0.09-0.23,0.13-0.39,0.13c-0.16,0-0.42-0.1-0.78-0.31
	c-0.36-0.21-0.79-0.43-1.31-0.68c-0.52-0.24-1.12-0.47-1.8-0.67c-0.68-0.2-1.43-0.3-2.24-0.3c-0.64,0-1.19,0.08-1.66,0.23
	c-0.47,0.16-0.87,0.37-1.19,0.64c-0.32,0.27-0.55,0.6-0.71,0.99c-0.15,0.39-0.23,0.79-0.23,1.22c0,0.64,0.17,1.19,0.52,1.65
	c0.35,0.47,0.81,0.88,1.4,1.24c0.58,0.36,1.25,0.7,1.99,1.02c0.74,0.32,1.49,0.65,2.26,1.01c0.77,0.36,1.52,0.76,2.26,1.21
	c0.74,0.45,1.4,0.99,1.97,1.62c0.58,0.63,1.04,1.37,1.4,2.22C316.18,360.28,316.36,361.28,316.36,362.43z"/>
<path class="st2" d="M340.11,368.76c0,0.43-0.02,0.79-0.06,1.08c-0.04,0.29-0.09,0.52-0.17,0.7c-0.07,0.18-0.17,0.31-0.28,0.39
	c-0.11,0.08-0.23,0.12-0.37,0.12h-14.42c-0.49,0-0.9-0.14-1.23-0.43c-0.33-0.29-0.5-0.76-0.5-1.41v-25.03c0-0.65,0.17-1.12,0.5-1.41
	c0.33-0.29,0.74-0.43,1.23-0.43h14.33c0.13,0,0.25,0.04,0.36,0.11c0.1,0.07,0.19,0.2,0.27,0.39c0.07,0.19,0.13,0.42,0.17,0.71
	c0.04,0.29,0.06,0.65,0.06,1.1c0,0.41-0.02,0.77-0.06,1.05c-0.04,0.29-0.09,0.52-0.17,0.7c-0.07,0.18-0.16,0.31-0.27,0.39
	c-0.1,0.08-0.22,0.12-0.36,0.12H328.9v7.01h8.68c0.13,0,0.26,0.04,0.37,0.12c0.11,0.08,0.2,0.21,0.28,0.38
	c0.07,0.17,0.13,0.4,0.17,0.69c0.04,0.29,0.06,0.64,0.06,1.05c0,0.43-0.02,0.78-0.06,1.07c-0.04,0.28-0.09,0.51-0.17,0.68
	c-0.07,0.17-0.17,0.29-0.28,0.37c-0.11,0.07-0.23,0.11-0.37,0.11h-8.68v8.1h10.34c0.13,0,0.26,0.04,0.37,0.12
	c0.11,0.08,0.2,0.21,0.28,0.39c0.07,0.18,0.13,0.41,0.17,0.7C340.09,367.97,340.11,368.33,340.11,368.76z"/>
<path class="st2" d="M370.49,368.87c0.18,0.53,0.29,0.95,0.33,1.27c0.04,0.31-0.02,0.54-0.18,0.7c-0.16,0.16-0.45,0.25-0.87,0.29
	c-0.41,0.04-0.98,0.06-1.71,0.06c-0.75,0-1.34-0.01-1.76-0.03c-0.42-0.02-0.74-0.07-0.97-0.13c-0.22-0.07-0.38-0.16-0.47-0.28
	c-0.09-0.12-0.16-0.27-0.22-0.47l-1.93-5.77h-10.79l-1.82,5.61c-0.06,0.21-0.14,0.38-0.23,0.52s-0.25,0.25-0.47,0.33
	c-0.22,0.08-0.52,0.14-0.91,0.17c-0.39,0.03-0.91,0.04-1.54,0.04c-0.68,0-1.21-0.02-1.6-0.07c-0.38-0.05-0.65-0.15-0.8-0.32
	c-0.15-0.17-0.2-0.41-0.15-0.72c0.04-0.31,0.15-0.72,0.33-1.24l8.85-25.47c0.09-0.25,0.19-0.45,0.31-0.61
	c0.12-0.15,0.31-0.27,0.57-0.36c0.26-0.08,0.62-0.13,1.08-0.15c0.46-0.02,1.07-0.03,1.82-0.03c0.87,0,1.57,0.01,2.09,0.03
	c0.52,0.02,0.92,0.07,1.21,0.15c0.29,0.08,0.5,0.2,0.62,0.37c0.13,0.16,0.23,0.39,0.32,0.67L370.49,368.87z M357.31,347.81h-0.02
	l-4.06,12.21h8.14L357.31,347.81z"/>
<path class="st2" d="M398.08,370.29c0,0.16-0.03,0.3-0.09,0.41c-0.06,0.11-0.2,0.2-0.42,0.28c-0.22,0.07-0.55,0.13-0.98,0.16
	c-0.43,0.03-1.01,0.04-1.75,0.04c-0.62,0-1.12-0.02-1.49-0.04c-0.37-0.03-0.66-0.09-0.88-0.17c-0.21-0.08-0.37-0.18-0.45-0.31
	c-0.09-0.13-0.16-0.28-0.22-0.45l-2.57-6.41c-0.31-0.72-0.61-1.37-0.91-1.93c-0.3-0.56-0.62-1.03-0.99-1.41
	c-0.36-0.38-0.78-0.66-1.25-0.85c-0.47-0.19-1.02-0.29-1.64-0.29h-1.82v10.94c0,0.15-0.05,0.28-0.14,0.4
	c-0.1,0.12-0.26,0.21-0.48,0.29c-0.22,0.07-0.52,0.13-0.89,0.18c-0.37,0.04-0.84,0.07-1.42,0.07c-0.56,0-1.03-0.02-1.41-0.07
	c-0.38-0.05-0.68-0.1-0.9-0.18c-0.22-0.07-0.38-0.17-0.47-0.29c-0.09-0.12-0.13-0.25-0.13-0.4v-26.07c0-0.65,0.17-1.12,0.5-1.41
	c0.33-0.29,0.74-0.43,1.23-0.43h7.43c0.75,0,1.38,0.02,1.86,0.04c0.49,0.03,0.93,0.07,1.33,0.11c1.15,0.16,2.19,0.44,3.12,0.84
	c0.92,0.4,1.71,0.92,2.35,1.56c0.64,0.64,1.14,1.4,1.48,2.28c0.34,0.88,0.51,1.89,0.51,3.03c0,0.96-0.12,1.84-0.37,2.63
	c-0.24,0.79-0.6,1.5-1.08,2.12c-0.47,0.62-1.06,1.16-1.75,1.62c-0.7,0.46-1.49,0.83-2.37,1.11c0.43,0.21,0.83,0.46,1.21,0.75
	c0.38,0.3,0.73,0.65,1.07,1.08c0.33,0.42,0.65,0.9,0.94,1.44c0.3,0.54,0.58,1.15,0.87,1.83l2.42,5.66c0.22,0.56,0.37,0.97,0.44,1.23
	C398.05,369.94,398.08,370.14,398.08,370.29z M390.56,350.81c0-0.95-0.21-1.74-0.64-2.4c-0.43-0.65-1.13-1.11-2.11-1.38
	c-0.3-0.07-0.63-0.13-1.01-0.18c-0.38-0.04-0.9-0.07-1.56-0.07h-2.62v8.14h2.97c0.83,0,1.55-0.1,2.17-0.3
	c0.62-0.2,1.14-0.48,1.55-0.84c0.41-0.36,0.72-0.79,0.93-1.3C390.46,351.99,390.56,351.43,390.56,350.81z"/>
<path class="st2" d="M424.17,366.7c0,0.37-0.01,0.68-0.03,0.94c-0.02,0.26-0.06,0.48-0.1,0.67c-0.04,0.19-0.1,0.34-0.18,0.48
	c-0.07,0.13-0.19,0.28-0.36,0.45c-0.16,0.17-0.48,0.39-0.94,0.65c-0.47,0.27-1.04,0.52-1.71,0.77c-0.67,0.24-1.44,0.45-2.31,0.61
	c-0.86,0.16-1.8,0.24-2.81,0.24c-1.97,0-3.74-0.3-5.33-0.91c-1.58-0.61-2.93-1.51-4.04-2.72c-1.11-1.21-1.96-2.71-2.55-4.52
	c-0.59-1.8-0.89-3.91-0.89-6.3c0-2.44,0.32-4.61,0.98-6.5c0.65-1.89,1.56-3.48,2.73-4.77c1.17-1.29,2.57-2.26,4.21-2.93
	c1.63-0.67,3.44-1,5.4-1c0.8,0,1.57,0.07,2.31,0.2c0.74,0.13,1.42,0.31,2.05,0.52c0.63,0.21,1.19,0.46,1.7,0.74
	c0.5,0.28,0.85,0.52,1.05,0.72c0.2,0.2,0.34,0.37,0.41,0.5c0.07,0.13,0.13,0.3,0.18,0.51c0.04,0.21,0.08,0.45,0.1,0.73
	c0.02,0.28,0.03,0.63,0.03,1.04c0,0.44-0.02,0.82-0.04,1.13c-0.03,0.31-0.08,0.56-0.15,0.75c-0.07,0.19-0.16,0.33-0.27,0.42
	c-0.1,0.09-0.22,0.13-0.36,0.13c-0.22,0-0.5-0.13-0.84-0.39c-0.34-0.26-0.78-0.55-1.32-0.87c-0.54-0.32-1.18-0.61-1.93-0.86
	s-1.64-0.39-2.67-0.39c-1.14,0-2.16,0.23-3.05,0.7c-0.9,0.47-1.66,1.13-2.28,2c-0.63,0.86-1.11,1.91-1.43,3.14
	c-0.32,1.23-0.49,2.61-0.49,4.15c0,1.69,0.17,3.15,0.52,4.38c0.35,1.24,0.84,2.25,1.49,3.05c0.64,0.8,1.42,1.39,2.33,1.79
	c0.91,0.39,1.93,0.59,3.07,0.59c1.04,0,1.93-0.12,2.69-0.37c0.75-0.24,1.4-0.51,1.94-0.81c0.54-0.3,0.98-0.56,1.33-0.8
	c0.35-0.24,0.62-0.36,0.81-0.36c0.15,0,0.27,0.03,0.36,0.09c0.09,0.06,0.16,0.18,0.22,0.36c0.06,0.18,0.1,0.43,0.13,0.74
	C424.15,365.74,424.17,366.16,424.17,366.7z"/>
<path class="st2" d="M453.04,370.25c0,0.15-0.05,0.28-0.15,0.4c-0.1,0.12-0.26,0.21-0.48,0.29c-0.22,0.07-0.52,0.13-0.89,0.18
	c-0.37,0.04-0.84,0.07-1.4,0.07c-0.58,0-1.05-0.02-1.43-0.07c-0.38-0.05-0.67-0.1-0.89-0.18c-0.22-0.07-0.37-0.17-0.47-0.29
	c-0.1-0.12-0.14-0.25-0.14-0.4v-11.61h-10.74v11.61c0,0.15-0.04,0.28-0.13,0.4c-0.09,0.12-0.24,0.21-0.47,0.29
	c-0.22,0.07-0.52,0.13-0.89,0.18c-0.37,0.04-0.84,0.07-1.42,0.07c-0.56,0-1.03-0.02-1.41-0.07c-0.38-0.05-0.68-0.1-0.9-0.18
	c-0.22-0.07-0.38-0.17-0.48-0.29c-0.1-0.12-0.15-0.25-0.15-0.4v-27.12c0-0.15,0.05-0.28,0.15-0.4c0.1-0.12,0.26-0.21,0.48-0.29
	c0.22-0.07,0.52-0.13,0.9-0.18c0.38-0.05,0.85-0.07,1.41-0.07c0.58,0,1.05,0.02,1.42,0.07c0.37,0.04,0.67,0.1,0.89,0.18
	c0.22,0.07,0.38,0.17,0.47,0.29c0.09,0.12,0.13,0.25,0.13,0.4v10.54h10.74v-10.54c0-0.15,0.05-0.28,0.14-0.4
	c0.1-0.12,0.25-0.21,0.47-0.29c0.21-0.07,0.51-0.13,0.89-0.18c0.38-0.05,0.85-0.07,1.43-0.07c0.56,0,1.03,0.02,1.4,0.07
	c0.37,0.04,0.66,0.1,0.89,0.18c0.22,0.07,0.38,0.17,0.48,0.29c0.1,0.12,0.15,0.25,0.15,0.4V370.25z"/>
</svg>
