<svg width="186" height="44" viewBox="0 0 186 44" fill="none" xmlns="http://www.w3.org/2000/svg">
<path d="M33.6448 9.67993V13.7866H37.1648L24.8448 25.2853L16.0448 17.0719L0.644897 31.4453L3.72489 34.3199L16.0448 22.8213L24.8448 31.0346L40.2448 16.6613V19.9466H44.6447V9.67993H33.6448Z" fill="url(#paint0_linear_2735_8374)"/>
<path d="M80.7762 26.4108H87.6787L94.3269 0.326716H87.606L84.0458 15.9481L80.0497 0.326716H73.1109L68.9694 15.8754L65.4455 0.326716H58.7247L65.3365 26.4108H72.2753L76.5258 10.1718L80.7762 26.4108ZM111.365 26.4108H118.776L109.221 0.326716H101.701L92.0379 26.4108H98.9767L100.612 21.5791H109.766L111.365 26.4108ZM105.262 7.88311L107.986 16.1661H102.464L105.262 7.88311ZM139.376 26.4108V20.1986H128.405V0.326716H121.539V26.4108H139.376ZM160.84 26.4108V20.1986H149.868V0.326716H143.002V26.4108H160.84ZM185.355 17.8735C185.355 14.0953 182.885 11.8066 178.235 10.8984L173.185 9.91752C171.804 9.66322 170.642 8.97297 170.642 7.81045C170.642 6.39363 171.877 5.30376 173.912 5.30376C176.2 5.30376 177.799 6.82957 177.98 9.19094H184.919C184.52 3.55998 180.051 -0.000244141 173.839 -0.000244141C167.99 -0.000244141 163.703 3.41466 163.703 8.28272C163.703 12.4969 166.464 14.9309 170.642 15.7301L175.401 16.6383C176.927 16.929 178.053 17.7645 178.053 18.8907C178.053 20.5255 176.491 21.4338 174.13 21.4338C171.296 21.4338 169.661 19.8716 169.588 17.4013H162.65C163.122 23.1775 167.481 26.7741 174.275 26.7741C181.068 26.7741 185.355 23.2502 185.355 17.8735Z" fill="white"/>
<path d="M70.1142 43.7709V40.1242H71.0602L73.3032 43.7709H76.7363L74.0508 39.6664C75.5309 39.0408 76.3701 37.8812 76.3701 36.4775C76.3701 34.143 74.6764 32.8155 71.7163 32.8155H67.2305V43.7709H70.1142ZM70.1142 35.1958H71.5943C72.876 35.1958 73.471 35.6078 73.471 36.4775C73.471 37.3472 72.876 37.7439 71.5943 37.7439H70.1142V35.1958ZM89.4463 41.2685H84.579V39.3918H88.897V36.8895H84.579V35.3179H89.3395V32.8155H81.6952V43.7709H89.4463V41.2685ZM103.533 40.1852C103.533 38.5984 102.495 37.6371 100.542 37.2556L98.4213 36.8437C97.8415 36.7369 97.3533 36.447 97.3533 35.9587C97.3533 35.3636 97.872 34.9059 98.7265 34.9059C99.6877 34.9059 100.359 35.5467 100.435 36.5385H103.35C103.182 34.1735 101.305 32.6782 98.696 32.6782C96.2394 32.6782 94.439 34.1125 94.439 36.1571C94.439 37.927 95.5986 38.9493 97.3533 39.285L99.3521 39.6664C99.9929 39.7885 100.466 40.1394 100.466 40.6124C100.466 41.299 99.8098 41.6805 98.818 41.6805C97.6279 41.6805 96.9413 41.0244 96.9108 39.9868H93.9965C94.1948 42.4129 96.0258 43.9234 98.8791 43.9234C101.732 43.9234 103.533 42.4434 103.533 40.1852ZM116.424 41.2685H111.557V39.3918H115.875V36.8895H111.557V35.3179H116.317V32.8155H108.673V43.7709H116.424V41.2685ZM128.878 43.7709H131.99L127.978 32.8155H124.819L120.761 43.7709H123.675L124.361 41.7415H128.206L128.878 43.7709ZM126.314 35.9892L127.459 39.4681H125.14L126.314 35.9892ZM139.697 43.7709V40.1242H140.643L142.885 43.7709H146.319L143.633 39.6664C145.113 39.0408 145.952 37.8812 145.952 36.4775C145.952 34.143 144.259 32.8155 141.299 32.8155H136.813V43.7709H139.697ZM139.697 35.1958H141.177C142.458 35.1958 143.053 35.6078 143.053 36.4775C143.053 37.3472 142.458 37.7439 141.177 37.7439H139.697V35.1958ZM156.206 43.9997C159.212 43.9997 161.516 42.0162 161.882 39.0866H158.83C158.586 40.4751 157.564 41.4211 156.236 41.4211C154.619 41.4211 153.597 40.1547 153.597 38.2779C153.597 36.4165 154.619 35.1653 156.236 35.1653C157.579 35.1653 158.601 36.1113 158.83 37.4845H161.882C161.531 34.5855 159.212 32.5867 156.206 32.5867C153.093 32.5867 150.637 35.0737 150.637 38.2779C150.637 41.4974 153.093 43.9997 156.206 43.9997ZM169.922 43.7709V39.3918H173.965V43.7709H176.849V32.8155H173.965V36.8895H169.922V32.8155H167.038V43.7709H169.922Z" fill="url(#paint1_linear_2735_8374)"/>
<defs>
<linearGradient id="paint0_linear_2735_8374" x1="-8.23273" y1="-0.519284" x2="1.5066" y2="49.5609" gradientUnits="userSpaceOnUse">
<stop stop-color="#66BB6A"/>
<stop offset="1" stop-color="#1B5E20"/>
</linearGradient>
<linearGradient id="paint1_linear_2735_8374" x1="45.1132" y1="27.8625" x2="45.9826" y2="51.9051" gradientUnits="userSpaceOnUse">
<stop stop-color="#66BB6A"/>
<stop offset="1" stop-color="#1B5E20"/>
</linearGradient>
</defs>
</svg>
